<svg width="48" height="48" viewBox="0 0 48 48" fill="none" xmlns="http://www.w3.org/2000/svg">
<path d="M38.6781 18.7036L38.6148 18.6179L38.6023 18.5928L32.8511 10.0552L27.0998 18.5929L27.0878 18.6169L27.0239 18.7037C26.101 19.9536 25.6133 21.4384 25.6133 22.9979C25.6133 26.9889 28.8602 30.2356 32.851 30.2356C36.8418 30.2356 40.0887 26.9888 40.0887 22.9979C40.0888 21.4383 39.601 19.9533 38.6781 18.7036Z" fill="#3C3C3C"/>
<path d="M32.8511 32.7016C27.5003 32.7016 23.1474 28.3486 23.1474 22.9979C23.1474 20.9179 23.7953 18.936 25.0214 17.2643L28.8022 11.6518L22.9738 3L10.8303 21.0266C8.92101 23.6249 7.91211 26.7055 7.91211 29.9382C7.91211 38.2432 14.6688 44.9999 22.9739 44.9999C30.843 44.9999 37.321 38.9336 37.9794 31.232C36.4905 32.1628 34.7327 32.7016 32.8511 32.7016Z" fill="#3C3C3C"/>
</svg>
