<svg width="48" height="48" viewBox="0 0 48 48" fill="none" xmlns="http://www.w3.org/2000/svg">
<path d="M32.0248 30.2251V42.0001C32.0248 42.7501 31.6498 43.4251 30.9748 43.7251C30.3748 44.0251 29.5498 44.0251 28.9498 43.6501L23.9998 40.4251L19.1248 43.6501C18.5248 44.0251 17.6998 44.1001 17.0998 43.7251C16.4248 43.3501 16.0498 42.6751 16.0498 42.0001V30.2251L16.8748 30.4501L21.3748 34.5751C22.8748 36.0001 25.2748 36.0001 26.7748 34.5751L31.2748 30.4501L32.0248 30.2251Z" fill="#3C3C3C"/>
<path d="M37.7998 24.375C38.0248 25.425 37.4248 26.4 36.4498 26.7L32.0248 28.125L30.2248 28.725L27.9748 30.75L25.3498 33.225C24.9748 33.525 24.5248 33.75 23.9998 33.75C23.4748 33.75 23.0248 33.6 22.6498 33.225L20.0248 30.75L17.8498 28.725L16.0498 28.125L11.6248 26.7C10.6498 26.4 10.0498 25.35 10.2748 24.375L11.6998 18L10.2748 11.625C10.0498 10.575 10.6498 9.6 11.6248 9.3L17.8498 7.275L22.6498 2.85C23.3998 2.175 24.5998 2.175 25.3498 2.85L30.1498 7.275L36.3748 9.3C37.3498 9.6 37.9498 10.65 37.7248 11.625L36.3748 18L37.7998 24.375Z" fill="#3C3C3C"/>
</svg>
