<svg width="32" height="32" viewBox="0 0 32 32" fill="none" xmlns="http://www.w3.org/2000/svg">
<path fill-rule="evenodd" clip-rule="evenodd" d="M2.77767 7.86946C2.77767 7.292 3.00707 6.73819 3.4154 6.32986C3.82372 5.92153 4.37753 5.69214 4.95499 5.69214H10.199C10.7765 5.69214 11.3303 5.92153 11.7386 6.32986C12.147 6.73819 12.3764 7.292 12.3764 7.86946V13.1135C12.3764 13.3994 12.32 13.6826 12.2106 13.9467C12.1012 14.2109 11.9408 14.4509 11.7386 14.6531C11.5364 14.8553 11.2964 15.0157 11.0323 15.1251C10.7681 15.2345 10.485 15.2908 10.199 15.2908H4.95466C4.66873 15.2908 4.3856 15.2345 4.12144 15.1251C3.85727 15.0157 3.61725 14.8553 3.41507 14.6531C3.21288 14.4509 3.0525 14.2109 2.94308 13.9467C2.83366 13.6826 2.77734 13.3994 2.77734 13.1135L2.77767 7.86946ZM19.7443 7.86946C19.7443 7.292 19.9737 6.73819 20.382 6.32986C20.7903 5.92153 21.3441 5.69214 21.9216 5.69214H27.1653C27.7428 5.69214 28.2966 5.92153 28.7049 6.32986C29.1132 6.73819 29.3426 7.292 29.3426 7.86946V13.1135C29.3426 13.3994 29.2863 13.6826 29.1769 13.9467C29.0675 14.2109 28.9071 14.4509 28.7049 14.6531C28.5027 14.8553 28.2627 15.0157 27.9985 15.1251C27.7344 15.2345 27.4512 15.2908 27.1653 15.2908H21.9216C21.6357 15.2908 21.3525 15.2345 21.0884 15.1251C20.8242 15.0157 20.5842 14.8553 20.382 14.6531C20.1798 14.4509 20.0194 14.2109 19.91 13.9467C19.8006 13.6826 19.7443 13.3994 19.7443 13.1135V7.86946ZM18.2399 18.5604H28.4852C28.7127 18.5604 28.9309 18.4701 29.0917 18.3092C29.2526 18.1483 29.343 17.9302 29.343 17.7027C29.343 17.4752 29.2526 17.257 29.0917 17.0962C28.9309 16.9353 28.7127 16.845 28.4852 16.845H3.63541C3.40792 16.845 3.18975 16.9353 3.0289 17.0962C2.86804 17.257 2.77767 17.4752 2.77767 17.7027C2.77767 17.9302 2.86804 18.1483 3.0289 18.3092C3.18975 18.4701 3.40792 18.5604 3.63541 18.5604H13.8319L9.88827 25.3909C9.05033 26.8425 10.0978 28.6569 11.774 28.6569H20.2978C21.9737 28.6569 23.0215 26.8425 22.1835 25.3909L18.2399 18.5604Z" fill="#3C3C3C"/>
</svg>
