<svg width="48" height="48" viewBox="0 0 48 48" fill="none" xmlns="http://www.w3.org/2000/svg">
<path d="M20.2546 24.6287C20.0723 24.4465 19.8625 24.3553 19.6256 24.3553C19.3885 24.3553 19.1788 24.4464 18.9966 24.6287L9.91829 33.707L5.98075 29.769C5.63432 29.4232 5.22459 29.2498 4.75031 29.2498C4.27603 29.2498 3.86582 29.4232 3.51949 29.769C3.17307 30.1158 3 30.5261 3 31.0001V43.2505C3 43.7244 3.17307 44.1345 3.51949 44.481C3.8661 44.827 4.27631 45.0005 4.75031 45.0005H17.0007C17.4746 45.0005 17.8847 44.827 18.2311 44.481C18.5773 44.1346 18.7506 43.7245 18.7506 43.2505C18.7506 42.7765 18.5773 42.3662 18.2311 42.0194L14.2935 38.0827L23.3719 29.0037C23.554 28.8215 23.6451 28.6124 23.6451 28.3751C23.6451 28.1377 23.5538 27.9288 23.3719 27.7458L20.2546 24.6287ZM44.4815 3.51925C44.1354 3.17282 43.7251 2.99976 43.2511 2.99976H31.0006C30.5267 2.99976 30.1169 3.17282 29.7702 3.51925C29.4241 3.86548 29.251 4.27569 29.251 4.74968C29.251 5.22368 29.4241 5.63398 29.7702 5.98012L33.7072 9.91767L24.6289 18.996C24.4469 19.1785 24.3556 19.388 24.3556 19.625C24.3556 19.8619 24.4469 20.0718 24.6289 20.2539L27.7466 23.3712C27.9288 23.5535 28.138 23.6445 28.3752 23.6445C28.6125 23.6445 28.8216 23.5535 29.0038 23.3712L38.0828 14.2929L42.0196 18.2302C42.3663 18.5765 42.7767 18.75 43.2507 18.75C43.7247 18.75 44.1346 18.5765 44.4811 18.2302C44.8273 17.884 45.0003 17.4737 45.0003 16.9997V4.74939C45.0006 4.27502 44.8286 3.86557 44.4815 3.51925Z" fill="#3C3C3C"/>
</svg>
