<svg width="30" height="30" viewBox="0 0 30 30" fill="none" xmlns="http://www.w3.org/2000/svg">
<g clip-path="url(#clip0_2018_17448)">
<path d="M15.8936 13.0053V2.37703L26.4671 7.27194V17.7451L28.2574 16.7381V6.12792L15.0208 0L11.3294 1.50701L12.0061 3.16457L14.1032 2.30849V12.9841L15.0148 13.5125L15.8936 13.0053ZM3.54237 13.5883H1.75195V16.534L3.54237 17.5679V13.5883ZM1.81168 8.63495H3.60209V11.5593H1.81168V8.63495ZM6.8842 3.45758L9.59209 2.35504L10.267 4.01296L7.55915 5.11538L6.8842 3.45758ZM2.23492 5.3799L4.94281 4.27742L5.61775 5.93528L2.90986 7.03776L2.23492 5.3799ZM15.0097 24.1899L22.5526 19.947L15.0148 15.5807L7.55796 19.8868L15.0097 24.1899Z" fill="white"/>
<path d="M18.4931 8.58203V15.527L22.3814 17.7792V10.5145L18.4931 8.58203ZM15.8934 25.676V30.0001L28.2572 22.8633V18.7214L15.8934 25.676ZM14.103 25.6626L1.74414 18.5257V22.8632L14.103 30.0001V25.6626Z" fill="white"/>
</g>
<defs>
<clipPath id="clip0_2018_17448">
<rect width="30" height="30" fill="white"/>
</clipPath>
</defs>
</svg>
