<svg width="30" height="30" viewBox="0 0 30 30" fill="none" xmlns="http://www.w3.org/2000/svg">
<g clip-path="url(#clip0_131_1088)">
<path d="M5.33203 16.7578C9.70072 16.7578 13.2422 20.2993 13.2422 24.668V30H16.7578V24.668C16.7578 18.3577 11.6423 13.2422 5.33203 13.2422V11.0458L0 15L5.33203 18.9542V16.7578ZM15 15.7206C15.5449 15.1405 16.125 14.6132 16.7578 14.1387V5.33203H18.9551L15 0L11.0449 5.33203H13.2422V14.1387C13.875 14.6132 14.4551 15.1406 15 15.7206ZM24.668 13.2422C21.26 13.2422 18.2094 14.7425 16.116 17.109C16.8812 18.1978 17.4764 19.3966 17.8813 20.6643C19.2582 18.3362 21.7673 16.7578 24.668 16.7578V18.9542L30 15L24.668 11.0458V13.2422Z" fill="white"/>
</g>
<defs>
<clipPath id="clip0_131_1088">
<rect width="30" height="30" fill="white"/>
</clipPath>
</defs>
</svg>
