<svg width="40" height="40" viewBox="0 0 40 40" fill="none" xmlns="http://www.w3.org/2000/svg">
<path d="M30.2275 10.2275C28.5512 10.049 26.9014 9.67603 25.3113 9.11626C23.8547 8.60177 22.4575 7.93253 21.1438 7.12001C20.7995 6.90918 20.4037 6.79761 20 6.79761C19.5963 6.79761 19.2005 6.90918 18.8563 7.12001C17.5418 7.93204 16.1442 8.60125 14.6875 9.11626C13.0986 9.67575 11.45 10.0487 9.775 10.2275C9.23682 10.282 8.73806 10.5345 8.37545 10.9359C8.01284 11.3373 7.81222 11.8591 7.8125 12.4V18.8938C7.81328 21.29 8.45454 23.6426 9.66989 25.7078C10.8852 27.773 12.6305 29.4758 14.725 30.64L18.9375 32.9813C19.2619 33.1637 19.6278 33.2595 20 33.2595C20.3722 33.2595 20.7381 33.1637 21.0625 32.9813L25.275 30.64C27.3694 29.4757 29.1146 27.7729 30.3299 25.7077C31.5453 23.6425 32.1866 21.29 32.1875 18.8938V12.4013C32.1882 11.8604 31.9881 11.3385 31.626 10.9366C31.2639 10.5348 30.7656 10.2829 30.2275 10.2275ZM28.97 19.2188C28.9691 20.9773 28.4983 22.7037 27.6063 24.2193C26.7142 25.7348 25.4334 26.9844 23.8963 27.8388L20.8888 29.51C20.6168 29.6611 20.311 29.7406 20 29.7413C19.6898 29.7414 19.3847 29.6622 19.1138 29.5113L16.1025 27.8388C14.5659 26.984 13.2857 25.7342 12.3941 24.2187C11.5025 22.7032 11.032 20.9771 11.0313 19.2188V14.5825C11.0305 14.13 11.1978 13.6933 11.5009 13.3572C11.8039 13.0211 12.221 12.8096 12.6713 12.7638C13.8467 12.6388 15.0037 12.3775 16.1188 11.985C17.141 11.6236 18.1215 11.1539 19.0438 10.5838C19.3317 10.4078 19.6626 10.3147 20 10.3147C20.3374 10.3147 20.6683 10.4078 20.9563 10.5838C21.8788 11.1528 22.8594 11.6221 23.8813 11.9838C24.9972 12.3764 26.1549 12.6381 27.3313 12.7638C27.781 12.8102 28.1975 13.022 28.5 13.358C28.8026 13.694 28.9696 14.1304 28.9688 14.5825L28.97 19.2188Z" fill="black"/>
<path d="M19.9997 12.1963C18.972 12.829 17.8801 13.3506 16.7422 13.7525C15.4889 14.194 14.1885 14.488 12.8672 14.6288L12.9047 19.2188C12.9055 20.6431 13.2868 22.0414 14.0091 23.269C14.7315 24.4966 15.7687 25.5089 17.0134 26.2013L20.0222 27.8725L22.9847 26.2013C24.2297 25.5091 25.2671 24.4968 25.9897 23.2692C26.7123 22.0416 27.0938 20.6433 27.0947 19.2188V14.5825C25.7845 14.4762 24.4942 14.1971 23.2572 13.7525C22.1194 13.3505 21.0274 12.8288 19.9997 12.1963Z" fill="black"/>
</svg>
