<svg width="24" height="24" viewBox="0 0 24 24" fill="none" xmlns="http://www.w3.org/2000/svg">
<g clip-path="url(#clip0_103_341)">
<path d="M2.83991 18.2409C2.03511 19.0457 2.03511 20.3553 2.83991 21.1601C3.64471 21.9649 4.95425 21.9649 5.75905 21.1601L8.89583 18.0233L5.97669 15.1041L2.83991 18.2409ZM0.868629 20.2122L0.603598 20.4772C-0.201199 21.282 -0.201199 22.5916 0.603598 23.3964C1.40839 24.2012 2.71794 24.2012 3.52274 23.3964L3.78777 23.1313C3.07654 23.0262 2.39188 22.7007 1.84555 22.1544C1.29922 21.6081 0.973817 20.9235 0.868629 20.2122ZM23.7404 0.259534C23.6326 0.151769 23.3342 -0.0861688 22.8922 0.0322374L12.6944 2.76467C11.6211 3.05225 10.8715 4.02918 10.8715 5.14035V12.1338L7.9333 15.072L8.92766 16.0663L11.8657 13.1283H18.8596C19.9708 13.1283 20.9476 12.3786 21.2353 11.3053L23.9677 1.10774C24.0862 0.6658 23.8482 0.3673 23.7404 0.259534Z" fill="white"/>
</g>
<defs>
<clipPath id="clip0_103_341">
<rect width="24" height="24" fill="white"/>
</clipPath>
</defs>
</svg>
