<svg width="95" height="28" viewBox="0 0 95 28" fill="none" xmlns="http://www.w3.org/2000/svg">
<path d="M51.8262 27.8796V5.39844H69.2953V10.4787H57.4132V14.1882H67.6127V18.7813H57.5041V23.0235H69.2953V27.9056L51.8262 27.8796Z" fill="white"/>
<path d="M70.9199 5.42767C73.6095 9.05273 76.2958 12.6778 78.9853 16.3061C76.2958 20.1715 73.6095 24.0337 70.9199 27.8991C73.158 27.9024 75.3993 27.9056 77.6373 27.9089C80.2782 24.0402 82.9222 20.1748 85.5631 16.3061C82.9222 12.6713 80.2782 9.03649 77.6373 5.39844L70.9199 5.42767Z" fill="white"/>
<path d="M83.127 11.4503C84.7413 9.4429 86.3557 7.43548 87.9701 5.4248H94.4471C91.7771 8.93617 89.1038 12.4508 86.4337 15.9622L83.127 11.4471V11.4503Z" fill="white"/>
<path d="M83.1263 21.2792L86.433 16.6504C89.1096 20.4021 91.7861 24.1539 94.4627 27.9024L87.8298 27.8926C86.2609 25.687 84.692 23.4815 83.123 21.2759L83.1263 21.2792Z" fill="white"/>
<path d="M49.8218 10.3067C49.5684 9.53364 48.9545 7.80882 47.1907 6.61021C45.7225 5.613 44.2153 5.50255 43.5462 5.49281H31.3425C31.3425 12.5708 31.3425 19.6455 31.3425 26.7234L19.0738 0H12.509L0 28H13.2204C15.9165 25.7619 18.6125 23.5239 21.3086 21.2858C20.5128 19.6227 19.7169 17.9629 18.9244 16.2998C15.4617 18.9179 11.9991 21.536 8.53318 24.1541C10.9726 18.6385 13.4121 13.1197 15.8515 7.60418L25.3039 28H37.0302V20.9643H43.9522C44.7513 20.9318 45.8687 20.7596 46.9536 20.1067C50.1077 18.213 50.8937 13.5582 49.8218 10.3035V10.3067ZM42.1397 16.3128H36.7216V10.4529H42.1397C43.7573 10.4529 45.0696 11.7652 45.0696 13.3828C45.0696 15.0005 43.7573 16.3128 42.1397 16.3128Z" fill="white"/>
</svg>
