<svg width="95" height="28" viewBox="0 0 95 28" fill="none" xmlns="http://www.w3.org/2000/svg">
<path d="M51.8262 27.8799V5.39868H69.2953V10.479H57.4132V14.1885H67.6127V18.7815H57.5041V23.0237H69.2953V27.9059L51.8262 27.8799Z" fill="black"/>
<path d="M70.9189 5.42791C73.6085 9.05297 76.2948 12.678 78.9844 16.3063C76.2948 20.1718 73.6085 24.0339 70.9189 27.8994C73.157 27.9026 75.3983 27.9059 77.6363 27.9091C80.2772 24.0404 82.9213 20.175 85.5621 16.3063C82.9213 12.6715 80.2772 9.03673 77.6363 5.39868L70.9189 5.42791Z" fill="black"/>
<path d="M83.126 11.4503C84.7404 9.4429 86.3547 7.43548 87.9691 5.4248H94.4462C91.7761 8.93617 89.1028 12.4508 86.4327 15.9622L83.126 11.4471V11.4503Z" fill="black"/>
<path d="M83.1263 21.2794L86.433 16.6506C89.1096 20.4024 91.7861 24.1541 94.4627 27.9026L87.8298 27.8929C86.2609 25.6873 84.692 23.4817 83.123 21.2762L83.1263 21.2794Z" fill="black"/>
<path d="M49.8218 10.3067C49.5684 9.53364 48.9545 7.80882 47.1907 6.61021C45.7225 5.613 44.2153 5.50255 43.5462 5.49281H31.3425C31.3425 12.5708 31.3425 19.6455 31.3425 26.7234L19.0738 0H12.509L0 28H13.2204C15.9165 25.7619 18.6125 23.5239 21.3086 21.2858C20.5128 19.6227 19.7169 17.9629 18.9244 16.2998C15.4617 18.9179 11.9991 21.536 8.53318 24.1541C10.9726 18.6385 13.4121 13.1197 15.8515 7.60418L25.3039 28H37.0302V20.9643H43.9522C44.7513 20.9318 45.8687 20.7596 46.9536 20.1067C50.1077 18.213 50.8937 13.5582 49.8218 10.3035V10.3067ZM42.1397 16.3128H36.7216V10.4529H42.1397C43.7573 10.4529 45.0696 11.7652 45.0696 13.3828C45.0696 15.0005 43.7573 16.3128 42.1397 16.3128Z" fill="black"/>
</svg>
