<svg width="28" height="8" viewBox="0 0 28 8" fill="none" xmlns="http://www.w3.org/2000/svg">
<path d="M7.33887 6C7.33887 7.10457 6.44344 8 5.33887 8H2.00141C0.669608 8 -0.29017 6.72274 0.0803835 5.44353L1.23908 1.44353C1.48677 0.588432 2.26985 0 3.1601 0H5.33887C6.44344 0 7.33887 0.895431 7.33887 2V6ZM15.7008 0C16.6739 0 17.5058 0.700434 17.6716 1.65935L18.363 5.65935C18.5743 6.88197 17.633 8 16.3922 8H13.7724C13.2312 8 12.7132 7.7807 12.3365 7.39217L9.0465 3.9988C8.68473 3.62566 8.48242 3.12635 8.48242 2.60663V2C8.48242 0.895431 9.37785 0 10.4824 0H15.7008ZM27.3475 4.44015C27.7078 4.81305 27.9092 5.3113 27.9092 5.82982V6C27.9092 7.10457 27.0138 8 25.9092 8H21.9102C20.8056 8 19.9102 7.10457 19.9102 6V2C19.9102 0.895431 20.8056 0 21.9102 0H22.209C22.7513 0 23.2704 0.220276 23.6473 0.610332L27.3475 4.44015Z" fill="white" fill-opacity="0.2"/>
</svg>
