<svg width="28" height="8" viewBox="0 0 28 8" fill="none" xmlns="http://www.w3.org/2000/svg">
<path d="M7.33887 6C7.33887 7.10457 6.44344 8 5.33887 8H2.00141C0.669608 8 -0.29017 6.72274 0.0803835 5.44353L1.23908 1.44353C1.48677 0.588432 2.26985 0 3.1601 0H5.33887C6.44344 0 7.33887 0.895431 7.33887 2V6ZM15.7 0C16.6731 0 17.5049 0.700308 17.6708 1.65911L18.3627 5.65912C18.5742 6.88181 17.6328 8 16.3919 8H13.7723C13.2312 8 12.7132 7.78076 12.3365 7.39232L9.04568 3.99883C8.68382 3.62568 8.48145 3.1263 8.48145 2.6065V2C8.48145 0.895431 9.37688 0 10.4814 0H15.7ZM27.3485 4.44015C27.7088 4.81305 27.9102 5.3113 27.9102 5.82982V6C27.9102 7.10457 27.0147 8 25.9102 8H21.9102C20.8056 8 19.9102 7.10457 19.9102 6V2C19.9102 0.895431 20.8056 0 21.9102 0H22.2099C22.7523 0 23.2714 0.220276 23.6483 0.610332L27.3485 4.44015Z" fill="#3C3C3C" fill-opacity="0.2"/>
</svg>
