<svg width="24" height="24" viewBox="0 0 24 24" fill="none" xmlns="http://www.w3.org/2000/svg">
<path d="M9.84473 10.6483V13.3517L11.9995 14.4291L14.1543 13.3517V10.6483L11.9995 9.57088L9.84473 10.6483ZM11.2812 8.32393L11.9995 7.9648L12.7178 8.32393V6.55147L15.3804 3.88879L14.3647 2.87303L12.7178 4.51995V2.24192L13.9439 1.01576L12.9282 0L11.9995 0.928611L11.0709 0L10.0551 1.01576L11.2812 2.24192V4.51995L9.63437 2.87303L8.61862 3.88879L11.2812 6.55147V8.32393ZM1.55034 7.65921L3.24428 7.28835L5.16231 8.51734L2.88716 9.01547L3.19443 10.4188L6.87282 9.6134L8.40821 10.5972V9.76045L9.17033 9.37939L7.64787 8.4038L6.84241 4.72542L5.43918 5.03269L5.93731 7.30779L4.01928 6.0788L3.64837 4.38491L2.24513 4.69218L2.52602 5.97504L1.24316 6.25593L1.55034 7.65921ZM15.5908 9.76045V10.5944L17.1227 9.60004L20.8059 10.3837L21.1048 8.9786L18.8267 8.49392L20.7374 7.25354L22.4334 7.61439L22.7324 6.20938L21.4479 5.93606L21.7212 4.65153L20.3161 4.35259L19.9553 6.04869L18.0445 7.28897L18.5292 5.0109L17.1241 4.71196L16.3406 8.39509L14.8262 9.37814L15.5908 9.76045ZM22.7559 17.744L22.4487 16.3407L20.7548 16.7116L18.8368 15.4827L21.1119 14.9845L20.8047 13.5812L17.1263 14.3866L15.5908 13.4028V14.2396L14.8287 14.6206L16.3512 15.5961L17.1566 19.2745L18.5599 18.9673L18.0617 16.6922L19.9798 17.9211L20.3506 19.6151L21.7539 19.3079L21.473 18.0249L22.7559 17.744ZM12.7178 15.6761L11.9995 16.0352L11.2812 15.6761V17.4485L8.61862 20.1112L9.63437 21.127L11.2812 19.4801V21.7581L10.0551 22.9842L11.0709 24L11.9995 23.0713L12.9282 24L13.9439 22.9842L12.7178 21.7581V19.4801L14.3647 21.127L15.3804 20.1112L12.7178 17.4485V15.6761ZM8.40821 14.2396V13.4056L6.87636 14.4L3.19328 13.6163L2.89429 15.0214L5.17237 15.5061L3.26161 16.7464L1.56557 16.3856L1.26667 17.7907L2.55121 18.0639L2.27789 19.3485L3.68299 19.6474L4.04379 17.9513L5.95455 16.711L5.46987 18.9891L6.87493 19.288L7.65854 15.6049L9.17287 14.6219L8.40821 14.2396Z" fill="white"/>
</svg>
