<svg width="24" height="24" viewBox="0 0 24 24" fill="none" xmlns="http://www.w3.org/2000/svg">
<g clip-path="url(#clip0_103_335)">
<path d="M6.64941 12.8879H8.25362V14.3003H6.64941V12.8879ZM6.64941 9.5717H8.25362V10.9841H6.64941V9.5717ZM6.64941 6.25553H8.25362V7.66789H6.64941V6.25553ZM8.25701 2.93936H6.64941V4.35172H8.25362V3.10569C8.25367 3.04994 8.25503 2.99458 8.25701 2.93936ZM16.0741 16.2483L15.8773 16.0433V3.10569C15.8773 1.3932 14.4841 0 12.7717 0C11.0592 0 9.66598 1.3932 9.66598 3.10569V16.0434L9.46914 16.2484C8.64207 17.1096 8.18856 18.2411 8.19214 19.4345C8.19953 21.9172 10.2248 23.9652 12.7067 23.9997C12.7278 23.9999 12.7499 24.0001 12.7715 24.0001H12.772C13.9951 24.0001 15.1451 23.5238 16.0099 22.6589C16.8748 21.7939 17.3511 20.6439 17.3511 19.4206C17.3512 18.2326 16.8976 17.106 16.0741 16.2483ZM12.7717 21.7872C11.4666 21.7872 10.405 20.7254 10.405 19.4205C10.405 18.3613 11.1043 17.4626 12.0655 17.1614V12.4171H13.4778V17.1614C14.439 17.4626 15.1384 18.3613 15.1384 19.4205C15.1384 20.7254 14.0767 21.7872 12.7717 21.7872Z" fill="white"/>
<path d="M12.7717 18.4661C12.2455 18.4661 11.8174 18.8942 11.8174 19.4204C11.8174 19.9466 12.2455 20.3747 12.7717 20.3747C13.2979 20.3747 13.726 19.9466 13.726 19.4204C13.726 18.8942 13.2979 18.4661 12.7717 18.4661Z" fill="white"/>
</g>
<defs>
<clipPath id="clip0_103_335">
<rect width="24" height="24" fill="white"/>
</clipPath>
</defs>
</svg>
