<svg width="24" height="24" viewBox="0 0 24 24" fill="none" xmlns="http://www.w3.org/2000/svg">
<g clip-path="url(#clip0_2017_13151)">
<path d="M6.35156 0H11.2969V3.675H6.35156V0ZM6.35156 20.325H11.2969V24H6.35156V20.325ZM12.7031 0H17.6484V3.675H12.7031V0ZM6.35156 10.1625H11.2969V13.8375H6.35156V10.1625ZM12.7031 20.325H17.6484V24H12.7031V20.325ZM12.7031 10.1625H17.6484V13.8375H12.7031V10.1625ZM0 5.08125H7.06252V8.75625H0V5.08125ZM16.9375 5.08125H24V8.75625H16.9375V5.08125ZM8.46877 5.08125H15.5313V8.75625H8.46877V5.08125ZM16.9375 15.2438H24V18.9188H16.9375V15.2438ZM0 15.2438H7.06252V18.9188H0V15.2438ZM8.46877 15.2438H15.5313V18.9188H8.46877V15.2438Z" fill="white"/>
</g>
<defs>
<clipPath id="clip0_2017_13151">
<rect width="24" height="24" fill="white"/>
</clipPath>
</defs>
</svg>
