<svg width="24" height="24" viewBox="0 0 24 24" fill="none" xmlns="http://www.w3.org/2000/svg">
<g clip-path="url(#clip0_103_354)">
<path d="M15.1304 8.86964L12 0L8.86964 8.86964L0 12L8.86964 15.1304L12 24L15.1304 15.1304L24 12L15.1304 8.86964ZM12 14.8438C10.4319 14.8438 9.15619 13.5681 9.15619 12C9.15619 10.4319 10.4319 9.15619 12 9.15619C13.5681 9.15619 14.8438 10.4319 14.8438 12C14.8438 13.5681 13.5681 14.8438 12 14.8438Z" fill="white"/>
<path d="M16.2323 16.2328L15.6447 17.8978L19.9621 19.9626L17.8973 15.6452L16.2323 16.2328ZM16.2323 7.76744L17.8973 8.35502L19.9621 4.0376L15.6447 6.10244L16.2323 7.76744ZM11.9996 10.5626C11.207 10.5626 10.5621 11.2075 10.5621 12.0001C10.5621 12.7928 11.207 13.4377 11.9996 13.4377C12.7923 13.4377 13.4372 12.7928 13.4372 12.0001C13.4372 11.2075 12.7923 10.5626 11.9996 10.5626ZM7.76695 7.76744L8.35453 6.10244L4.03711 4.0376L6.10195 8.35502L7.76695 7.76744ZM7.76695 16.2328L6.10195 15.6452L4.03711 19.9626L8.35453 17.8978L7.76695 16.2328Z" fill="white"/>
</g>
<defs>
<clipPath id="clip0_103_354">
<rect width="24" height="24" fill="white"/>
</clipPath>
</defs>
</svg>
