<svg width="30" height="30" viewBox="0 0 30 30" fill="none" xmlns="http://www.w3.org/2000/svg">
<path d="M10.3126 17.8126C10.3136 19.1944 10.4814 20.571 10.8126 21.9126L3.87508 22.4938C3.83364 22.4992 3.79184 22.5013 3.75008 22.5001H3.73758C3.70169 22.5025 3.66567 22.4983 3.63133 22.4876C3.48785 22.4625 3.35804 22.387 3.26525 22.2747C3.17245 22.1624 3.12275 22.0207 3.12508 21.8751V17.8126C3.12508 19.6501 3.49383 20.8126 3.75008 21.1688C4.00633 20.8126 4.37508 19.6501 4.37508 17.8126C4.37508 15.9751 4.00633 14.8126 3.75008 14.4563C3.49383 14.8126 3.12508 15.9751 3.12508 17.8126V13.7501C3.1256 13.6635 3.14358 13.5779 3.17795 13.4985C3.21231 13.419 3.26235 13.3473 3.32508 13.2876C3.44326 13.1852 3.59372 13.1276 3.75008 13.1251C3.79184 13.1239 3.83364 13.126 3.87508 13.1313L10.8188 13.7126C10.4833 15.0535 10.3133 16.4304 10.3126 17.8126ZM26.8751 13.7501V17.8126C26.8751 15.9751 26.5063 14.8126 26.2501 14.4563C25.9938 14.8126 25.6251 15.9751 25.6251 17.8126C25.6251 19.6501 25.9938 20.8126 26.2501 21.1688C26.5063 20.8126 26.8751 19.6501 26.8751 17.8126V21.8751C26.8746 21.9617 26.8566 22.0473 26.8222 22.1267C26.7878 22.2062 26.7378 22.2779 26.6751 22.3376C26.5584 22.4425 26.407 22.5004 26.2501 22.5001C26.2083 22.5013 26.1665 22.4992 26.1251 22.4938L19.5313 21.9438L19.4563 21.6438C19.1389 20.3914 18.9773 19.1046 18.9751 17.8126C18.9731 16.522 19.1369 15.2364 19.4626 13.9876L19.5438 13.6813L26.1251 13.1313C26.1665 13.126 26.2083 13.1239 26.2501 13.1251C26.4066 13.1266 26.5575 13.1842 26.6751 13.2876C26.7378 13.3473 26.7878 13.419 26.8222 13.4985C26.8566 13.5779 26.8746 13.6635 26.8751 13.7501Z" fill="black"/>
<path d="M26.25 13.125C26.2082 13.1238 26.1664 13.1259 26.125 13.1312C24.8375 13.2812 24.375 15.7187 24.375 17.8125C24.375 19.9062 24.8375 22.3437 26.125 22.4937C26.1664 22.4991 26.2082 22.5012 26.25 22.5C27.6313 22.5 28.125 19.975 28.125 17.8125C28.125 15.65 27.6313 13.125 26.25 13.125ZM26.25 21.1687C25.9937 20.8125 25.625 19.65 25.625 17.8125C25.625 15.975 25.9937 14.8125 26.25 14.4562C26.5063 14.8125 26.875 15.975 26.875 17.8125C26.875 19.65 26.5063 20.8125 26.25 21.1687ZM3.875 13.1312C3.83356 13.1259 3.79177 13.1238 3.75 13.125C2.36875 13.125 1.875 15.65 1.875 17.8125C1.875 19.9125 2.34375 22.35 3.63125 22.4875C3.66559 22.4982 3.70162 22.5024 3.7375 22.5H3.75C3.79177 22.5012 3.83356 22.4991 3.875 22.4937C5.1625 22.3437 5.625 19.9062 5.625 17.8125C5.625 15.7187 5.1625 13.2812 3.875 13.1312ZM3.75 21.1687C3.49375 20.8125 3.125 19.65 3.125 17.8125C3.125 15.975 3.49375 14.8125 3.75 14.4562C4.00625 14.8125 4.375 15.975 4.375 17.8125C4.375 19.65 4.00625 20.8125 3.75 21.1687ZM17.9813 22.7687L17.5 27.5625C17.4878 27.6757 17.4454 27.7836 17.3773 27.8749C17.3091 27.9662 17.2176 28.0374 17.1125 28.0812C17.037 28.1114 16.9563 28.1262 16.875 28.125C16.729 28.125 16.5876 28.0741 16.475 27.9812L15 26.75L13.525 27.9812C13.4376 28.0543 13.332 28.1022 13.2195 28.1197C13.107 28.1372 12.9918 28.1237 12.8864 28.0806C12.7809 28.0375 12.6893 27.9665 12.6212 27.8752C12.5531 27.7839 12.5112 27.6758 12.5 27.5625L12.0187 22.7687L15.0188 22.5187L17.9813 22.7687ZM22.7794 6.31562L15.5594 2.70624C15.3855 2.62004 15.1941 2.5752 15 2.5752C14.8059 2.5752 14.6145 2.62004 14.4406 2.70624L8.265 5.79374C8.06253 5.89488 7.89132 6.04909 7.76963 6.23992C7.64795 6.43074 7.58035 6.65103 7.57406 6.87726C7.56778 7.1035 7.62303 7.3272 7.73393 7.52449C7.84483 7.72178 8.00721 7.88527 8.20375 7.99749L11.4225 9.83624C11.6111 9.9436 11.8243 10.0002 12.0413 10.0006H17.9587C18.1764 10.0003 18.3903 9.9434 18.5794 9.83562L22.8106 7.41812C22.9089 7.36195 22.99 7.28016 23.0454 7.18148C23.1008 7.0828 23.1284 6.97094 23.1252 6.85782C23.122 6.7447 23.0881 6.63457 23.0272 6.53919C22.9663 6.44381 22.8806 6.36675 22.7794 6.31624V6.31562Z" fill="black"/>
<path d="M17.5 8.125H12.5C11.8096 8.125 11.25 8.68464 11.25 9.375V10.625C11.25 11.3154 11.8096 11.875 12.5 11.875H17.5C18.1904 11.875 18.75 11.3154 18.75 10.625V9.375C18.75 8.68464 18.1904 8.125 17.5 8.125Z" fill="black"/>
<path d="M22.5 10.625C22.3342 10.625 22.1753 10.5592 22.0581 10.4419C21.9408 10.3247 21.875 10.1658 21.875 10V6.875C21.875 6.70924 21.9408 6.55027 22.0581 6.43306C22.1753 6.31585 22.3342 6.25 22.5 6.25C22.6658 6.25 22.8247 6.31585 22.9419 6.43306C23.0592 6.55027 23.125 6.70924 23.125 6.875V10C23.125 10.1658 23.0592 10.3247 22.9419 10.4419C22.8247 10.5592 22.6658 10.625 22.5 10.625Z" fill="black"/>
<path d="M23.1247 11.2501C23.0427 11.2502 22.9614 11.2341 22.8855 11.2026C22.8097 11.1712 22.7408 11.1251 22.6829 11.067L22.4997 10.8839L22.3166 11.067C22.1987 11.1808 22.0409 11.2438 21.877 11.2424C21.7131 11.241 21.5564 11.1753 21.4405 11.0594C21.3246 10.9435 21.2589 10.7867 21.2574 10.6229C21.256 10.459 21.319 10.3011 21.4329 10.1832L22.0579 9.55824C22.1751 9.44107 22.334 9.37524 22.4997 9.37524C22.6655 9.37524 22.8244 9.44107 22.9416 9.55824L23.5666 10.1832C23.654 10.2706 23.7135 10.382 23.7376 10.5032C23.7617 10.6244 23.7493 10.7501 23.702 10.8643C23.6547 10.9785 23.5747 11.0761 23.4719 11.1447C23.3691 11.2134 23.2483 11.2501 23.1247 11.2501ZM18.0347 17.8126C18.0373 19.1827 18.2094 20.5473 18.5472 21.8751L15.0197 21.5814L11.7635 21.8526C11.0801 19.2026 11.0801 16.4226 11.7635 13.7726L15.0197 14.0439L18.5547 13.7501C18.2082 15.0764 18.0335 16.4418 18.0347 17.8126Z" fill="black"/>
</svg>
