<svg width="30" height="30" viewBox="0 0 30 30" fill="none" xmlns="http://www.w3.org/2000/svg">
<path d="M15 7.5C14.8342 7.5 14.6753 7.43415 14.5581 7.31694C14.4408 7.19973 14.375 7.04076 14.375 6.875V2.5C14.375 2.33424 14.4408 2.17527 14.5581 2.05806C14.6753 1.94085 14.8342 1.875 15 1.875C15.1658 1.875 15.3247 1.94085 15.4419 2.05806C15.5592 2.17527 15.625 2.33424 15.625 2.5V6.875C15.625 7.04076 15.5592 7.19973 15.4419 7.31694C15.3247 7.43415 15.1658 7.5 15 7.5Z" fill="black"/>
<path d="M18.3953 3.43687L15.2703 1.93687C15.1751 1.89112 15.0698 1.87026 14.9642 1.87625C14.8587 1.88224 14.7565 1.91489 14.667 1.97114C14.5775 2.02739 14.5038 2.1054 14.4527 2.19789C14.4016 2.29038 14.3747 2.39432 14.3747 2.5V5C14.3747 5.16576 14.4405 5.32473 14.5577 5.44194C14.675 5.55915 14.8339 5.625 14.9997 5.625C15.0644 5.62505 15.1287 5.61493 15.1903 5.595L18.3153 4.595C18.4343 4.55676 18.5391 4.48373 18.6161 4.38534C18.6932 4.28695 18.739 4.16772 18.7476 4.04304C18.7562 3.91835 18.7273 3.79395 18.6645 3.6859C18.6017 3.57785 18.5079 3.4911 18.3953 3.43687ZM26.3916 12.665L15.6197 6.50937C15.4307 6.40199 15.2171 6.34553 14.9997 6.34553C14.7823 6.34553 14.5687 6.40199 14.3797 6.50937L3.60781 12.665C3.3686 12.8018 3.18132 13.0139 3.0751 13.2682C2.96888 13.5225 2.94967 13.8048 3.02046 14.0711C3.09125 14.3374 3.24807 14.5729 3.46653 14.7409C3.685 14.9089 3.95285 15 4.22844 15H25.7709C26.0465 15 26.3144 14.9089 26.5328 14.7409C26.7513 14.5729 26.9081 14.3374 26.9789 14.0711C27.0497 13.8048 27.0305 13.5225 26.9243 13.2682C26.818 13.0139 26.6308 12.8018 26.3916 12.665Z" fill="black"/>
<path d="M25 25.0693H5C4.65482 25.0693 4.375 25.3492 4.375 25.6943V27.4306C4.375 27.7758 4.65482 28.0556 5 28.0556H25C25.3452 28.0556 25.625 27.7758 25.625 27.4306V25.6943C25.625 25.3492 25.3452 25.0693 25 25.0693Z" fill="black"/>
<path d="M24.375 13.125H5.625C4.93464 13.125 4.375 13.6846 4.375 14.375V15C4.375 15.6904 4.93464 16.25 5.625 16.25H24.375C25.0654 16.25 25.625 15.6904 25.625 15V14.375C25.625 13.6846 25.0654 13.125 24.375 13.125Z" fill="black"/>
<path d="M10 23.75H6.875C6.52982 23.75 6.25 24.0298 6.25 24.375V25C6.25 25.3452 6.52982 25.625 6.875 25.625H10C10.3452 25.625 10.625 25.3452 10.625 25V24.375C10.625 24.0298 10.3452 23.75 10 23.75Z" fill="black"/>
<path d="M10 15.625H6.875C6.52982 15.625 6.25 15.9048 6.25 16.25V16.875C6.25 17.2202 6.52982 17.5 6.875 17.5H10C10.3452 17.5 10.625 17.2202 10.625 16.875V16.25C10.625 15.9048 10.3452 15.625 10 15.625Z" fill="black"/>
<path d="M10 17.1875V25.3125H6.875V17.1875H10Z" fill="black"/>
<path d="M16.5625 23.75H13.4375C13.0923 23.75 12.8125 24.0298 12.8125 24.375V25C12.8125 25.3452 13.0923 25.625 13.4375 25.625H16.5625C16.9077 25.625 17.1875 25.3452 17.1875 25V24.375C17.1875 24.0298 16.9077 23.75 16.5625 23.75Z" fill="black"/>
<path d="M16.5625 15.625H13.4375C13.0923 15.625 12.8125 15.9048 12.8125 16.25V16.875C12.8125 17.2202 13.0923 17.5 13.4375 17.5H16.5625C16.9077 17.5 17.1875 17.2202 17.1875 16.875V16.25C17.1875 15.9048 16.9077 15.625 16.5625 15.625Z" fill="black"/>
<path d="M16.5625 17.1875V25.3125H13.4375V17.1875H16.5625Z" fill="black"/>
<path d="M23.125 23.75H20C19.6548 23.75 19.375 24.0298 19.375 24.375V25C19.375 25.3452 19.6548 25.625 20 25.625H23.125C23.4702 25.625 23.75 25.3452 23.75 25V24.375C23.75 24.0298 23.4702 23.75 23.125 23.75Z" fill="black"/>
<path d="M23.125 15.625H20C19.6548 15.625 19.375 15.9048 19.375 16.25V16.875C19.375 17.2202 19.6548 17.5 20 17.5H23.125C23.4702 17.5 23.75 17.2202 23.75 16.875V16.25C23.75 15.9048 23.4702 15.625 23.125 15.625Z" fill="black"/>
<path d="M23.125 17.1875V25.3125H20V17.1875H23.125Z" fill="black"/>
</svg>
