<svg width="30" height="30" viewBox="0 0 30 30" fill="none" xmlns="http://www.w3.org/2000/svg">
<path d="M24.5156 10.3594H24.0656C24.0281 10.3594 23.9906 10.3125 23.9813 10.275C23.8204 9.76349 23.6133 9.2677 23.3625 8.79375C23.3438 8.75625 23.3344 8.7 23.3719 8.67188L23.6906 8.35312C23.9675 8.07008 24.1224 7.68972 24.1219 7.29375C24.1239 7.09739 24.0867 6.9026 24.0127 6.72073C23.9387 6.53885 23.8292 6.37353 23.6906 6.23438L21.8906 4.43438C21.6087 4.15522 21.228 3.99862 20.8313 3.99862C20.4345 3.99862 20.0538 4.15522 19.7719 4.43438L19.4531 4.75313C19.425 4.79063 19.3688 4.78125 19.3313 4.7625C18.8572 4.51186 18.3615 4.30476 17.85 4.14375C17.8125 4.13438 17.7656 4.09687 17.7656 4.05937V3.60937C17.7644 3.21193 17.606 2.83112 17.3249 2.55008C17.0439 2.26904 16.6631 2.11061 16.2656 2.10938H13.7344C13.3369 2.11061 12.9561 2.26904 12.6751 2.55008C12.394 2.83112 12.2356 3.21193 12.2344 3.60937V4.05937C12.2344 4.09687 12.1875 4.13438 12.15 4.14375C11.6386 4.30476 11.1428 4.51186 10.6688 4.7625C10.6313 4.78125 10.575 4.79063 10.5469 4.75313L10.2281 4.43438C9.94621 4.15522 9.5655 3.99862 9.16875 3.99862C8.77201 3.99862 8.3913 4.15522 8.10938 4.43438L6.30938 6.23438C6.17082 6.37353 6.06134 6.53885 5.9873 6.72073C5.91327 6.9026 5.87615 7.09739 5.87813 7.29375C5.87764 7.68972 6.03247 8.07008 6.30938 8.35312L6.62813 8.67188C6.66563 8.7 6.65625 8.75625 6.6375 8.79375C6.38682 9.26774 6.17972 9.76353 6.01875 10.275C6.00938 10.3125 5.97188 10.3594 5.93438 10.3594H5.48438C5.08693 10.3606 4.70612 10.519 4.42508 10.8001C4.14405 11.0811 3.98561 11.4619 3.98438 11.8594V14.3906C3.9839 14.6121 4.03338 14.8307 4.12915 15.0304C4.22492 15.2301 4.3645 15.4055 4.5375 15.5437C4.79864 14.8709 5.25131 14.2894 5.83951 13.8712C6.4277 13.4529 7.12561 13.2163 7.84688 13.1906C8.72133 13.1996 9.55949 13.5416 10.1906 14.1469C10.1151 13.8115 10.0774 13.4688 10.0781 13.125C10.0781 11.8196 10.5967 10.5677 11.5197 9.64471C12.4427 8.72168 13.6946 8.20312 15 8.20312C16.3054 8.20312 17.5573 8.72168 18.4803 9.64471C19.4033 10.5677 19.9219 11.8196 19.9219 13.125C19.9226 13.4688 19.8849 13.8115 19.8094 14.1469C20.4405 13.5416 21.2787 13.1996 22.1531 13.1906C22.8744 13.2165 23.5722 13.4531 24.1604 13.8713C24.7486 14.2896 25.2013 14.871 25.4625 15.5437C25.6355 15.4055 25.775 15.23 25.8708 15.0304C25.9665 14.8307 26.016 14.612 26.0156 14.3906V11.8594C26.0144 11.4619 25.856 11.0811 25.5749 10.8001C25.2939 10.519 24.9131 10.3606 24.5156 10.3594ZM18.8203 24.3478L16.9538 23.7262C16.897 23.7068 16.8466 23.6723 16.808 23.6264C16.7694 23.5805 16.7439 23.525 16.7344 23.4658C16.7249 23.4066 16.7316 23.3459 16.7539 23.2902C16.7762 23.2345 16.8132 23.186 16.8609 23.1497C17.3234 22.744 17.6914 22.2419 17.9391 21.6788C18.1867 21.1156 18.308 20.505 18.2944 19.89C18.2944 17.7075 16.8188 15.9375 15 15.9375C13.1813 15.9375 11.7056 17.7075 11.7056 19.89C11.692 20.505 11.8133 21.1156 12.0609 21.6788C12.3086 22.2419 12.6766 22.744 13.1391 23.1497C13.1868 23.186 13.2238 23.2345 13.2461 23.2902C13.2684 23.3459 13.2751 23.4066 13.2656 23.4658C13.2561 23.525 13.2306 23.5805 13.192 23.6264C13.1534 23.6723 13.103 23.7068 13.0463 23.7262L11.1797 24.3478C10.7254 24.4992 10.3095 24.7478 9.96106 25.0763C9.61263 25.4048 9.34001 25.8054 9.16219 26.25L8.77313 27.2212C8.73314 27.3213 8.71827 27.4296 8.72983 27.5367C8.74139 27.6437 8.77902 27.7464 8.83943 27.8356C8.89984 27.9247 8.98118 27.9978 9.07635 28.0482C9.17152 28.0987 9.2776 28.125 9.38532 28.125H20.6147C20.7224 28.125 20.8285 28.0987 20.9237 28.0482C21.0188 27.9978 21.1002 27.9247 21.1606 27.8356C21.221 27.7464 21.2586 27.6437 21.2702 27.5367C21.2817 27.4296 21.2669 27.3213 21.2269 27.2212L20.8378 26.25C20.66 25.8054 20.3874 25.4048 20.0389 25.0763C19.6905 24.7478 19.2746 24.4992 18.8203 24.3478Z" fill="black"/>
<path d="M11.8405 23.1376L10.8842 23.4563C10.3089 23.6485 9.7814 23.9618 9.33735 24.375H3.12173C3.03161 24.3746 2.94298 24.352 2.86363 24.3093C2.78428 24.2666 2.71663 24.205 2.66664 24.13C2.61665 24.055 2.58584 23.9689 2.57692 23.8792C2.568 23.7895 2.58124 23.699 2.61548 23.6157L2.93423 22.8C3.0858 22.4269 3.31574 22.0907 3.60849 21.8141C3.90124 21.5375 4.24997 21.3271 4.6311 21.1969L6.2061 20.6719C6.25413 20.6569 6.29698 20.6287 6.32983 20.5905C6.36269 20.5524 6.38423 20.5059 6.39203 20.4561C6.39983 20.4064 6.39357 20.3555 6.37397 20.3092C6.35437 20.2628 6.32221 20.2228 6.2811 20.1938C5.89352 19.8506 5.58538 19.4271 5.37814 18.9527C5.1709 18.4783 5.06953 17.9645 5.0811 17.4469C5.01369 16.6413 5.26602 15.8416 5.78354 15.2206C6.30106 14.5995 7.0422 14.2071 7.84673 14.1282C8.65218 14.2067 9.39449 14.5986 9.91361 15.2195C10.4327 15.8403 10.687 16.6403 10.6217 17.4469C10.6337 17.9654 10.5316 18.4802 10.3226 18.9549C10.1137 19.4296 9.8029 19.8525 9.41235 20.1938C9.37308 20.224 9.34265 20.2641 9.32427 20.3101C9.30589 20.3561 9.30025 20.4062 9.30792 20.4551C9.31559 20.504 9.33631 20.55 9.36788 20.5882C9.39946 20.6263 9.44073 20.6552 9.48735 20.6719L10.9217 21.15C11.0763 21.8727 11.3902 22.5517 11.8405 23.1376ZM26.878 24.375H20.6624C20.2183 23.9618 19.6908 23.6485 19.1155 23.4563L18.1592 23.1376C18.6096 22.5517 18.9235 21.8727 19.078 21.15L20.5124 20.6719C20.559 20.6552 20.6003 20.6263 20.6318 20.5882C20.6634 20.55 20.6841 20.504 20.6918 20.4551C20.6995 20.4062 20.6938 20.3561 20.6754 20.3101C20.6571 20.2641 20.6266 20.224 20.5874 20.1938C20.1968 19.8525 19.886 19.4296 19.6771 18.9549C19.4681 18.4802 19.366 17.9654 19.378 17.4469C19.3127 16.6403 19.567 15.8403 20.0861 15.2195C20.6052 14.5986 21.3475 14.2067 22.153 14.1282C22.9575 14.2071 23.6986 14.5995 24.2162 15.2206C24.7337 15.8416 24.986 16.6413 24.9186 17.4469C24.9302 17.9645 24.8288 18.4783 24.6216 18.9527C24.4143 19.4271 24.1062 19.8506 23.7186 20.1938C23.6775 20.2228 23.6453 20.2628 23.6257 20.3092C23.6061 20.3555 23.5999 20.4064 23.6077 20.4561C23.6155 20.5059 23.637 20.5524 23.6699 20.5905C23.7027 20.6287 23.7456 20.6569 23.7936 20.6719L25.3686 21.1969C25.7497 21.3271 26.0985 21.5375 26.3912 21.8141C26.684 22.0907 26.9139 22.4269 27.0655 22.8L27.3842 23.6157C27.4185 23.699 27.4317 23.7895 27.4228 23.8792C27.4139 23.9689 27.3831 24.055 27.3331 24.13C27.2831 24.205 27.2154 24.2666 27.1361 24.3093C27.0567 24.352 26.9681 24.3746 26.878 24.375Z" fill="black"/>
</svg>
