<svg width="30" height="30" viewBox="0 0 30 30" fill="none" xmlns="http://www.w3.org/2000/svg">
<path d="M25.2275 5.22751C23.5512 5.04895 21.9014 4.67603 20.3113 4.11626C18.8547 3.60177 17.4575 2.93253 16.1438 2.12001C15.7995 1.90918 15.4037 1.79761 15 1.79761C14.5963 1.79761 14.2005 1.90918 13.8563 2.12001C12.5418 2.93204 11.1442 3.60125 9.6875 4.11626C8.09858 4.67575 6.45002 5.04867 4.775 5.22751C4.23682 5.28203 3.73806 5.53448 3.37545 5.93589C3.01284 6.3373 2.81222 6.85907 2.8125 7.40001V13.8938C2.81328 16.29 3.45454 18.6426 4.66989 20.7078C5.88524 22.773 7.63051 24.4758 9.725 25.64L13.9375 27.9813C14.2619 28.1637 14.6278 28.2595 15 28.2595C15.3722 28.2595 15.7381 28.1637 16.0625 27.9813L20.275 25.64C22.3694 24.4757 24.1146 22.7729 25.3299 20.7077C26.5453 18.6425 27.1866 16.29 27.1875 13.8938V7.40126C27.1882 6.86035 26.9881 6.33845 26.626 5.93663C26.2639 5.53481 25.7656 5.28293 25.2275 5.22751ZM23.97 14.2188C23.9691 15.9773 23.4983 17.7037 22.6063 19.2193C21.7142 20.7348 20.4334 21.9844 18.8963 22.8388L15.8888 24.51C15.6168 24.6611 15.311 24.7406 15 24.7413C14.6898 24.7414 14.3847 24.6622 14.1138 24.5113L11.1025 22.8388C9.56594 21.984 8.28565 20.7342 7.39407 19.2187C6.50249 17.7032 6.03199 15.9771 6.03125 14.2188V9.58251C6.03047 9.12997 6.19785 8.69329 6.50089 8.35721C6.80394 8.02113 7.22105 7.80963 7.67125 7.76376C8.84674 7.6388 10.0037 7.37746 11.1188 6.98501C12.141 6.62364 13.1215 6.15388 14.0438 5.58376C14.3317 5.40779 14.6626 5.31469 15 5.31469C15.3374 5.31469 15.6683 5.40779 15.9563 5.58376C16.8788 6.15284 17.8594 6.62214 18.8813 6.98376C19.9972 7.37637 21.1549 7.63812 22.3313 7.76376C22.781 7.81021 23.1975 8.02196 23.5 8.35798C23.8026 8.694 23.9696 9.13036 23.9688 9.58251L23.97 14.2188Z" fill="black"/>
<path d="M14.9997 7.19629C13.972 7.82896 12.8801 8.35064 11.7422 8.75254C10.4889 9.19398 9.18848 9.48804 7.86719 9.62879L7.90469 14.2188C7.90548 15.6431 8.28677 17.0414 9.00912 18.269C9.73148 19.4966 10.7687 20.5089 12.0134 21.2013L15.0222 22.8725L17.9847 21.2013C19.2297 20.5091 20.2671 19.4968 20.9897 18.2692C21.7123 17.0416 22.0938 15.6433 22.0947 14.2188V9.58254C20.7845 9.47621 19.4942 9.19713 18.2572 8.75254C17.1194 8.35048 16.0274 7.82881 14.9997 7.19629Z" fill="black"/>
</svg>
