<svg width="30" height="30" viewBox="0 0 30 30" fill="none" xmlns="http://www.w3.org/2000/svg">
<path d="M28.125 10V13.75C28.1245 13.9156 28.0585 14.0743 27.9414 14.1914C27.8243 14.3085 27.6656 14.3745 27.5 14.375H26.25V11.875C26.2501 11.6534 26.191 11.4358 26.079 11.2447C25.9669 11.0535 25.8059 10.8957 25.6125 10.7875L15.6125 5.1625C15.4259 5.05601 15.2148 5.00001 15 5.00001C14.7852 5.00001 14.5741 5.05601 14.3875 5.1625L4.3875 10.7875C4.19411 10.8957 4.03309 11.0535 3.92103 11.2447C3.80897 11.4358 3.74993 11.6534 3.75 11.875V14.375H2.5C2.33439 14.3745 2.17571 14.3085 2.0586 14.1914C1.9415 14.0743 1.87549 13.9156 1.875 13.75V10C1.87581 9.8878 1.9063 9.77781 1.96338 9.6812C2.02047 9.5846 2.1021 9.50483 2.2 9.45L14.7 2.575C14.7923 2.52576 14.8954 2.5 15 2.5C15.1046 2.5 15.2077 2.52576 15.3 2.575L27.8 9.45C27.8979 9.50483 27.9795 9.5846 28.0366 9.6812C28.0937 9.77781 28.1242 9.8878 28.125 10Z" fill="black"/>
<path d="M14.375 22.5H9.375C9.02982 22.5 8.75 22.7798 8.75 23.125V26.875C8.75 27.2202 9.02982 27.5 9.375 27.5H14.375C14.7202 27.5 15 27.2202 15 26.875V23.125C15 22.7798 14.7202 22.5 14.375 22.5Z" fill="black"/>
<path d="M16.875 16.875H11.875C11.5298 16.875 11.25 17.1548 11.25 17.5V21.25C11.25 21.5952 11.5298 21.875 11.875 21.875H16.875C17.2202 21.875 17.5 21.5952 17.5 21.25V17.5C17.5 17.1548 17.2202 16.875 16.875 16.875Z" fill="black"/>
<path d="M21.25 22.5H16.25C15.9048 22.5 15.625 22.7798 15.625 23.125V26.875C15.625 27.2202 15.9048 27.5 16.25 27.5H21.25C21.5952 27.5 21.875 27.2202 21.875 26.875V23.125C21.875 22.7798 21.5952 22.5 21.25 22.5Z" fill="black"/>
<path d="M25.3063 11.3307L15.3063 5.70569C15.2128 5.65296 15.1073 5.62524 15 5.62524C14.8927 5.62524 14.7872 5.65296 14.6938 5.70569L4.69375 11.3307C4.59712 11.385 4.51667 11.4641 4.46066 11.5597C4.40464 11.6554 4.37508 11.7642 4.375 11.8751V26.8751C4.375 27.0408 4.44085 27.1998 4.55806 27.317C4.67527 27.4342 4.83424 27.5001 5 27.5001H6.875V16.8751C6.70924 16.8751 6.55027 16.8092 6.43306 16.692C6.31585 16.5748 6.25 16.4158 6.25 16.2501V15.6251C6.25 15.4593 6.31585 15.3003 6.43306 15.1831C6.55027 15.0659 6.70924 15.0001 6.875 15.0001H23.125C23.2908 15.0001 23.4497 15.0659 23.5669 15.1831C23.6842 15.3003 23.75 15.4593 23.75 15.6251V16.2501C23.75 16.4158 23.6842 16.5748 23.5669 16.692C23.4497 16.8092 23.2908 16.8751 23.125 16.8751V27.5001H25C25.1658 27.5001 25.3247 27.4342 25.4419 27.317C25.5592 27.1998 25.625 27.0408 25.625 26.8751V11.8751C25.6249 11.7642 25.5954 11.6554 25.5393 11.5597C25.4833 11.4641 25.4029 11.385 25.3063 11.3307Z" fill="black"/>
</svg>
