<svg width="48" height="48" viewBox="0 0 48 48" fill="none" xmlns="http://www.w3.org/2000/svg">
<path d="M24.0007 3C23.2411 3.00079 22.5129 3.3029 21.9758 3.84002C21.4386 4.37714 21.1365 5.1054 21.1357 5.865C21.1357 7.05 21.7875 9.30525 22.6597 10.722C23.103 10.689 23.5492 10.6665 24.0015 10.6665C24.4537 10.6665 24.9 10.689 25.3432 10.722C26.2155 9.30525 26.8672 7.04925 26.8672 5.865C26.8662 5.10546 26.5641 4.37731 26.027 3.84023C25.4899 3.30316 24.7618 3.00099 24.0022 3H24.0007ZM7.58398 28.5833C7.58398 37.635 14.9482 45 24.0007 45C33.0532 45 40.4175 37.6357 40.4175 28.5833C40.4175 19.5308 33.0532 12.1665 24.0007 12.1665C14.9482 12.1665 7.58398 19.5308 7.58398 28.5833ZM22.8532 31.713C22.921 31.7845 22.974 31.8687 23.0093 31.9607C23.0445 32.0526 23.0613 32.1507 23.0586 32.2492C23.056 32.3476 23.034 32.4446 22.9938 32.5346C22.9537 32.6246 22.8962 32.7057 22.8247 32.7735C22.7532 32.8413 22.6691 32.8943 22.5771 32.9295C22.4851 32.9648 22.3871 32.9815 22.2886 32.9789C22.1901 32.9762 22.0931 32.9542 22.0031 32.9141C21.9132 32.874 21.832 32.8165 21.7642 32.745L17.7232 28.4797L16.8127 29.2433V32.2245C16.8127 32.4234 16.7337 32.6142 16.5931 32.7548C16.4524 32.8955 16.2616 32.9745 16.0627 32.9745C15.8638 32.9745 15.6731 32.8955 15.5324 32.7548C15.3918 32.6142 15.3127 32.4234 15.3127 32.2245V23.6512C15.3127 23.4523 15.3918 23.2616 15.5324 23.1209C15.6731 22.9803 15.8638 22.9012 16.0627 22.9012C16.2616 22.9012 16.4524 22.9803 16.5931 23.1209C16.7337 23.2616 16.8127 23.4523 16.8127 23.6512V27.285L21.8295 23.0767C21.982 22.9489 22.1789 22.8869 22.3771 22.9044C22.5753 22.9218 22.7584 23.0173 22.8862 23.1698C23.014 23.3222 23.076 23.5192 23.0586 23.7174C23.0412 23.9156 22.9457 24.0987 22.7932 24.2265L18.8737 27.5145L22.8517 31.7137L22.8532 31.713ZM24.939 26.3498C24.94 25.4353 25.3037 24.5586 25.9504 23.9121C26.5971 23.2656 27.4738 22.902 28.3882 22.9012H29.2402C30.1545 22.9022 31.0311 23.2659 31.6776 23.9124C32.3241 24.5589 32.6877 25.4355 32.6887 26.3498C32.6887 26.5487 32.6097 26.7394 32.4691 26.8801C32.3284 27.0207 32.1376 27.0998 31.9387 27.0998C31.7398 27.0998 31.5491 27.0207 31.4084 26.8801C31.2678 26.7394 31.1887 26.5487 31.1887 26.3498C31.1883 25.8331 30.9829 25.3377 30.6176 24.9724C30.2523 24.6071 29.7569 24.4016 29.2402 24.4012H28.3882C27.8716 24.4018 27.3762 24.6073 27.0108 24.9726C26.6454 25.3378 26.4398 25.8331 26.439 26.3498V29.526C26.4398 30.0427 26.6454 30.5379 27.0108 30.9032C27.3762 31.2684 27.8716 31.4739 28.3882 31.4745H29.2402C29.7568 31.4739 30.2521 31.2684 30.6174 30.9031C30.9827 30.5379 31.1881 30.0426 31.1887 29.526V29.0752H29.2537C29.0548 29.0752 28.8641 28.9962 28.7234 28.8556C28.5828 28.7149 28.5037 28.5242 28.5037 28.3252C28.5037 28.1263 28.5828 27.9356 28.7234 27.7949C28.8641 27.6543 29.0548 27.5752 29.2537 27.5752H31.9387C32.1376 27.5752 32.3284 27.6543 32.4691 27.7949C32.6097 27.9356 32.6887 28.1263 32.6887 28.3252V29.526C32.6877 30.4403 32.3241 31.3169 31.6776 31.9634C31.0311 32.6099 30.1545 32.9735 29.2402 32.9745H28.3882C27.4738 32.9737 26.5971 32.6102 25.9504 31.9636C25.3037 31.3171 24.94 30.4404 24.939 29.526V26.3498Z" fill="#3C3C3C"/>
</svg>
