<svg width="48" height="48" viewBox="0 0 48 48" fill="none" xmlns="http://www.w3.org/2000/svg">
<path d="M39.9877 31.3453L36.2581 29.1972L39.2854 28.2708C39.493 28.2117 39.6867 28.1117 39.8552 27.9768C40.0237 27.8419 40.1636 27.6747 40.2667 27.4851C40.3698 27.2955 40.434 27.0872 40.4557 26.8724C40.4773 26.6577 40.4559 26.4408 40.3928 26.2344C40.3296 26.028 40.2258 25.8363 40.0877 25.6704C39.9495 25.5046 39.7796 25.368 39.588 25.2686C39.3964 25.1692 39.1869 25.1091 38.9718 25.0916C38.7566 25.0742 38.5402 25.0998 38.3351 25.167L32.409 26.9804L27.2498 24.0093L32.4216 21.0239L38.3357 22.8331C38.7433 22.9456 39.1788 22.8947 39.5495 22.6911C39.9202 22.4876 40.1968 22.1474 40.3206 21.7431C40.4444 21.3387 40.4056 20.902 40.2124 20.5258C40.0191 20.1496 39.6868 19.8636 39.286 19.7287L36.2647 18.8047L39.9883 16.6548C40.3537 16.4359 40.6184 16.0821 40.7254 15.6698C40.8323 15.2575 40.7729 14.8197 40.56 14.4507C40.3471 14.0818 39.9977 13.8114 39.5871 13.6977C39.1766 13.5841 38.7379 13.6364 38.3655 13.8433L34.642 15.9932L35.3514 12.9151C35.448 12.4956 35.3741 12.0549 35.1459 11.6898C34.9177 11.3248 34.554 11.0653 34.1345 10.9684C33.715 10.8725 33.2745 10.9467 32.9097 11.175C32.5448 11.4032 32.2852 11.7667 32.1879 12.1859L30.7977 18.2124L25.6235 21.1996V15.2353L30.148 11.0186C30.4629 10.7252 30.6485 10.3187 30.6637 9.88849C30.6789 9.4583 30.5227 9.03967 30.2293 8.7247C29.9358 8.40973 29.5293 8.22421 29.0991 8.20897C28.6689 8.19373 28.2503 8.35 27.9353 8.64341L25.6229 10.7975V6.49772C25.627 6.28196 25.5881 6.06755 25.5084 5.86701C25.4287 5.66647 25.3098 5.48383 25.1587 5.32978C25.0076 5.17574 24.8273 5.05336 24.6283 4.96983C24.4293 4.88629 24.2157 4.84326 23.9999 4.84326C23.7841 4.84326 23.5704 4.88629 23.3715 4.96983C23.1725 5.05336 22.9922 5.17574 22.8411 5.32978C22.6899 5.48383 22.571 5.66647 22.4913 5.86701C22.4116 6.06755 22.3727 6.28196 22.3769 6.49772V10.7969L20.0668 8.64341C19.7515 8.35036 19.3328 8.19429 18.9026 8.20942C18.4724 8.22454 18.0657 8.40963 17.7717 8.7241C17.4782 9.03913 17.3219 9.45779 17.337 9.88806C17.3521 10.3183 17.5375 10.725 17.8524 11.0186L22.3769 15.2359V21.199L17.2033 18.2124L15.8131 12.1859C15.7159 11.7666 15.4563 11.403 15.0914 11.1747C14.7265 10.9465 14.286 10.8723 13.8664 10.9684C13.447 11.0653 13.0832 11.3248 12.855 11.6898C12.6268 12.0549 12.5529 12.4956 12.6495 12.9151L13.359 15.9932L9.6354 13.8433C9.2636 13.6441 8.82888 13.5974 8.42325 13.713C8.01762 13.8287 7.6729 14.0976 7.46205 14.4629C7.2512 14.8282 7.19077 15.2613 7.29354 15.6704C7.39631 16.0794 7.65422 16.4325 8.01268 16.6548L11.7363 18.8047L8.71616 19.7287C8.51005 19.7891 8.31798 19.8898 8.15108 20.025C7.98418 20.1602 7.84576 20.3271 7.74385 20.5162C7.64194 20.7053 7.57857 20.9127 7.55739 21.1264C7.53622 21.3401 7.55767 21.556 7.6205 21.7613C7.68333 21.9667 7.7863 22.1576 7.92343 22.3229C8.06057 22.4882 8.22914 22.6247 8.41939 22.7243C8.60963 22.824 8.81777 22.885 9.03174 22.9036C9.24571 22.9223 9.46125 22.8983 9.66588 22.8331L15.58 21.0239L20.7512 24.0093L15.5925 26.9798L9.66588 25.1664C9.46167 25.1027 9.24688 25.0799 9.03385 25.0995C8.82082 25.119 8.61375 25.1805 8.42456 25.2804C8.23536 25.3802 8.06777 25.5165 7.93141 25.6813C7.79505 25.8461 7.69261 26.0363 7.63 26.2408C7.56738 26.4454 7.54581 26.6603 7.56653 26.8732C7.58725 27.0862 7.64985 27.2929 7.75073 27.4815C7.85161 27.6702 7.98878 27.837 8.15437 27.9725C8.31995 28.1079 8.51067 28.2093 8.71556 28.2708L11.7428 29.1972L8.01388 31.3453C7.82919 31.4517 7.66728 31.5935 7.53738 31.7625C7.40749 31.9315 7.31215 32.1244 7.25682 32.3303C7.20148 32.5361 7.18724 32.7509 7.21489 32.9622C7.24254 33.1736 7.31156 33.3774 7.41799 33.5621C7.52442 33.7468 7.66618 33.9087 7.83519 34.0386C8.0042 34.1685 8.19713 34.2638 8.40298 34.3192C8.60883 34.3745 8.82357 34.3888 9.03492 34.3611C9.24628 34.3335 9.45012 34.2644 9.6348 34.158L13.3584 32.0135L12.6501 35.0856C12.567 35.5 12.6487 35.9305 12.8779 36.2856C13.1071 36.6407 13.4657 36.8925 13.8776 36.9874C14.2894 37.0823 14.7221 37.013 15.0836 36.794C15.4451 36.575 15.707 36.2238 15.8137 35.8148L17.2003 29.8003L22.3775 26.819V32.7654L17.8536 36.9815C17.6976 37.1268 17.5718 37.3014 17.4833 37.4954C17.3949 37.6893 17.3455 37.8988 17.3379 38.1118C17.3304 38.3248 17.3649 38.5373 17.4395 38.737C17.5141 38.9367 17.6273 39.1197 17.7726 39.2757C17.9179 39.4316 18.0925 39.5575 18.2865 39.6459C18.4804 39.7344 18.6899 39.7838 18.9029 39.7913C19.116 39.7989 19.3284 39.7643 19.5281 39.6898C19.7278 39.6152 19.9108 39.502 20.0668 39.3567L22.3775 37.2032V41.503C22.3733 41.7187 22.4122 41.9331 22.4919 42.1337C22.5716 42.3342 22.6905 42.5169 22.8417 42.6709C22.9928 42.825 23.1731 42.9473 23.3721 43.0309C23.571 43.1144 23.7847 43.1574 24.0005 43.1574C24.2163 43.1574 24.4299 43.1144 24.6289 43.0309C24.8278 42.9473 25.0082 42.825 25.1593 42.6709C25.3104 42.5169 25.4293 42.3342 25.509 42.1337C25.5887 41.9331 25.6276 41.7187 25.6235 41.503V37.2032L27.9347 39.3573C28.2345 39.6378 28.6299 39.7936 29.0405 39.793C29.3666 39.7933 29.6852 39.6954 29.9548 39.512C30.2245 39.3286 30.4326 39.0683 30.5521 38.7648C30.6716 38.4614 30.6968 38.129 30.6247 37.811C30.5525 37.493 30.3861 37.2042 30.1474 36.9821L25.6235 32.766V26.819L30.8006 29.8015L32.1873 35.8154C32.2843 36.2349 32.5439 36.5987 32.909 36.827C33.2741 37.0553 33.7149 37.1293 34.1345 37.0329C34.554 36.936 34.9177 36.6765 35.1459 36.3114C35.3741 35.9464 35.448 35.5057 35.3514 35.0862L34.6432 32.0141L38.3667 34.1586C38.5514 34.2652 38.7552 34.3343 38.9666 34.362C39.178 34.3898 39.3928 34.3755 39.5987 34.3202C39.8046 34.2649 39.9975 34.1695 40.1665 34.0395C40.3355 33.9095 40.4772 33.7475 40.5836 33.5627C41.0312 32.7851 40.7641 31.793 39.9877 31.3453Z" fill="#3C3C3C"/>
</svg>
