<svg width="48" height="48" viewBox="0 0 48 48" fill="none" xmlns="http://www.w3.org/2000/svg">
<path d="M23.7518 17.1265C21.7126 17.1265 19.7192 17.7312 18.0237 18.8641C16.3281 19.997 15.0066 21.6073 14.2262 23.4912C13.4459 25.3752 13.2417 27.4483 13.6395 29.4483C14.0374 31.4484 15.0193 33.2855 16.4613 34.7274C17.9032 36.1694 19.7403 37.1513 21.7404 37.5492C23.7404 37.947 25.8135 37.7428 27.6974 36.9624C29.5814 36.1821 31.1917 34.8606 32.3246 33.165C33.4575 31.4695 34.0622 29.4761 34.0622 27.4369C34.0622 24.7024 32.976 22.0799 31.0424 20.1463C29.1088 18.2127 26.4863 17.1265 23.7518 17.1265ZM28.3417 28.0125C28.2347 28.2268 28.0702 28.407 27.8665 28.533C27.6628 28.6589 27.4281 28.7257 27.1886 28.7257C26.9893 28.726 26.7927 28.6795 26.6147 28.5899L23.1779 26.8715C22.9632 26.7649 22.7825 26.6005 22.6562 26.3968C22.5299 26.1931 22.463 25.9582 22.463 25.7185V20.5633C22.463 20.2215 22.5988 19.8936 22.8405 19.6519C23.0822 19.4103 23.41 19.2745 23.7518 19.2745C24.0936 19.2745 24.4214 19.4103 24.6631 19.6519C24.9048 19.8936 25.0406 20.2215 25.0406 20.5633V24.9211L27.7643 26.2838C28.0701 26.4365 28.3027 26.7044 28.411 27.0286C28.5193 27.3528 28.4943 27.7067 28.3417 28.0125Z" fill="#3C3C3C"/>
<path d="M15.1601 27.0071H6.5681C6.22629 27.0071 5.89847 26.8713 5.65678 26.6296C5.41508 26.3879 5.2793 26.0601 5.2793 25.7183C5.2793 25.3765 5.41508 25.0487 5.65678 24.807C5.89847 24.5653 6.22629 24.4295 6.5681 24.4295H15.1601C15.5019 24.4295 15.8297 24.5653 16.0714 24.807C16.3131 25.0487 16.4489 25.3765 16.4489 25.7183C16.4489 26.0601 16.3131 26.3879 16.0714 26.6296C15.8297 26.8713 15.5019 27.0071 15.1601 27.0071ZM15.1601 32.1623H8.2865C7.94469 32.1623 7.61688 32.0265 7.37518 31.7848C7.13348 31.5431 6.9977 31.2153 6.9977 30.8735C6.9977 30.5317 7.13348 30.2039 7.37518 29.9622C7.61688 29.7205 7.94469 29.5847 8.2865 29.5847H15.1601C15.5019 29.5847 15.8297 29.7205 16.0714 29.9622C16.3131 30.2039 16.4489 30.5317 16.4489 30.8735C16.4489 31.2153 16.3131 31.5431 16.0714 31.7848C15.8297 32.0265 15.5019 32.1623 15.1601 32.1623ZM22.0337 37.3175H11.7233C11.3815 37.3175 11.0537 37.1817 10.812 36.94C10.5703 36.6983 10.4345 36.3705 10.4345 36.0287C10.4345 35.6869 10.5703 35.3591 10.812 35.1174C11.0537 34.8757 11.3815 34.7399 11.7233 34.7399H22.0337C22.3755 34.7399 22.7033 34.8757 22.945 35.1174C23.1867 35.3591 23.3225 35.6869 23.3225 36.0287C23.3225 36.3705 23.1867 36.6983 22.945 36.94C22.7033 37.1817 22.3755 37.3175 22.0337 37.3175ZM27.1889 8.1047H20.3153C19.9735 8.1047 19.6457 7.96892 19.404 7.72722C19.1623 7.48552 19.0265 7.15771 19.0265 6.8159C19.0265 6.47409 19.1623 6.14628 19.404 5.90458C19.6457 5.66288 19.9735 5.5271 20.3153 5.5271H27.1889C27.5307 5.5271 27.8585 5.66288 28.1002 5.90458C28.3419 6.14628 28.4777 6.47409 28.4777 6.8159C28.4777 7.15771 28.3419 7.48552 28.1002 7.72722C27.8585 7.96892 27.5307 8.1047 27.1889 8.1047Z" fill="#3C3C3C"/>
<path d="M23.7517 13.2599C23.4098 13.2599 23.082 13.1241 22.8403 12.8824C22.5986 12.6407 22.4629 12.3129 22.4629 11.9711V6.8159C22.4629 6.47409 22.5986 6.14628 22.8403 5.90458C23.082 5.66288 23.4098 5.5271 23.7517 5.5271C24.0935 5.5271 24.4213 5.66288 24.663 5.90458C24.9047 6.14628 25.0405 6.47409 25.0405 6.8159V11.9711C25.0405 12.3129 24.9047 12.6407 24.663 12.8824C24.4213 13.1241 24.0935 13.2599 23.7517 13.2599ZM19.1463 41.6994C19.0115 41.6992 18.8776 41.6777 18.7494 41.6359C17.8762 41.3498 17.0349 40.9744 16.2388 40.5155C16.0824 40.4368 15.9437 40.327 15.8311 40.193C15.7186 40.0589 15.6345 39.9033 15.584 39.7357C15.5335 39.5681 15.5178 39.3919 15.5376 39.218C15.5575 39.044 15.6126 38.876 15.6995 38.724C15.7865 38.5721 15.9035 38.4394 16.0434 38.3342C16.1833 38.229 16.3432 38.1534 16.5133 38.112C16.6834 38.0705 16.8601 38.0642 17.0327 38.0934C17.2054 38.1225 17.3702 38.1866 17.5173 38.2815C18.1608 38.6516 18.8402 38.9556 19.545 39.1889C19.834 39.2858 20.0793 39.4821 20.2372 39.7428C20.3952 40.0035 20.4556 40.3118 20.4078 40.6128C20.36 40.9139 20.2071 41.1882 19.9761 41.3872C19.7451 41.5861 19.4512 41.6968 19.1463 41.6994Z" fill="#3C3C3C"/>
<path d="M23.7525 42.4727C23.2856 42.4756 22.819 42.4492 22.3554 42.3937C22.185 42.3757 22.0198 42.3239 21.8696 42.2413C21.7194 42.1587 21.5872 42.0469 21.4808 41.9126C21.3743 41.7783 21.2957 41.6241 21.2495 41.459C21.2034 41.294 21.1906 41.1214 21.212 40.9513C21.2333 40.7812 21.2884 40.6171 21.374 40.4686C21.4595 40.3201 21.5739 40.1901 21.7103 40.0864C21.8467 39.9826 22.0024 39.907 22.1684 39.8642C22.3343 39.8213 22.5072 39.8119 22.6768 39.8367C23.0338 39.8785 23.393 39.898 23.7525 39.8951C26.812 39.8906 29.7701 38.7978 32.0978 36.8122C34.4254 34.8266 35.9708 32.0777 36.4574 29.0571C36.9441 26.0366 36.3403 22.9414 34.754 20.3252C33.1678 17.709 30.7026 15.7424 27.7993 14.7773C26.8042 14.4386 25.77 14.2278 24.7217 14.15C24.4398 14.1363 24.0962 14.1191 23.7525 14.1191C21.0867 14.1184 18.4864 14.9444 16.3096 16.4831C14.1329 18.0219 12.4868 20.1978 11.5982 22.7111C11.4803 23.028 11.2425 23.2859 10.9362 23.4291C10.6299 23.5723 10.2795 23.5894 9.96071 23.4767C9.6419 23.3639 9.38017 23.1304 9.23195 22.8265C9.08374 22.5225 9.06092 22.1725 9.16842 21.8519C10.2347 18.8361 12.2098 16.2252 14.8217 14.3786C17.4336 12.5321 20.5538 11.5409 23.7525 11.5415C24.1357 11.5415 24.5155 11.5587 24.8798 11.5776C26.152 11.6691 27.4075 11.9226 28.6156 12.332C32.0995 13.4908 35.0576 15.8513 36.9606 18.9912C38.8636 22.1312 39.5875 25.8458 39.0026 29.4706C38.4178 33.0953 36.5624 36.3938 33.7685 38.7759C30.9745 41.158 27.4241 42.4684 23.7525 42.4727Z" fill="#3C3C3C"/>
</svg>
