<svg width="690" height="214" viewBox="0 0 690 214" fill="none" xmlns="http://www.w3.org/2000/svg">
<path d="M132.904 44V38.6818L145.33 27.1761C146.387 26.1534 147.273 25.233 147.989 24.4148C148.716 23.5966 149.267 22.7955 149.642 22.0114C150.017 21.2159 150.205 20.358 150.205 19.4375C150.205 18.4148 149.972 17.5341 149.506 16.7955C149.04 16.0455 148.404 15.4716 147.597 15.0739C146.79 14.6648 145.875 14.4602 144.853 14.4602C143.784 14.4602 142.853 14.6761 142.057 15.108C141.262 15.5398 140.648 16.1591 140.216 16.9659C139.784 17.7727 139.569 18.733 139.569 19.8466H132.563C132.563 17.5625 133.08 15.5795 134.114 13.8977C135.148 12.2159 136.597 10.9148 138.461 9.99432C140.324 9.07386 142.472 8.61364 144.904 8.61364C147.404 8.61364 149.58 9.05682 151.432 9.94318C153.296 10.8182 154.745 12.0341 155.779 13.5909C156.813 15.1477 157.33 16.9318 157.33 18.9432C157.33 20.2614 157.069 21.5625 156.546 22.8466C156.034 24.1307 155.12 25.5568 153.801 27.125C152.483 28.6818 150.625 30.5511 148.228 32.733L143.131 37.7273V37.9659H157.79V44H132.904ZM176.826 44.767C173.894 44.7557 171.371 44.0341 169.257 42.6023C167.155 41.1705 165.536 39.0966 164.4 36.3807C163.275 33.6648 162.718 30.3977 162.729 26.5795C162.729 22.7727 163.292 19.5284 164.417 16.8466C165.553 14.1648 167.172 12.125 169.275 10.7273C171.388 9.31818 173.905 8.61364 176.826 8.61364C179.746 8.61364 182.257 9.31818 184.36 10.7273C186.473 12.1364 188.098 14.1818 189.235 16.8636C190.371 19.5341 190.934 22.7727 190.922 26.5795C190.922 30.4091 190.354 33.6818 189.218 36.3977C188.093 39.1136 186.479 41.1875 184.377 42.6193C182.275 44.0511 179.757 44.767 176.826 44.767ZM176.826 38.6477C178.826 38.6477 180.422 37.642 181.615 35.6307C182.809 33.6193 183.4 30.6023 183.388 26.5795C183.388 23.9318 183.115 21.7273 182.57 19.9659C182.036 18.2045 181.275 16.8807 180.286 15.9943C179.309 15.108 178.155 14.6648 176.826 14.6648C174.837 14.6648 173.246 15.6591 172.053 17.6477C170.86 19.6364 170.257 22.6136 170.246 26.5795C170.246 29.2614 170.513 31.5 171.047 33.2955C171.593 35.0795 172.36 36.4205 173.348 37.3182C174.337 38.2045 175.496 38.6477 176.826 38.6477ZM209.873 44.767C206.941 44.7557 204.418 44.0341 202.304 42.6023C200.202 41.1705 198.583 39.0966 197.446 36.3807C196.321 33.6648 195.765 30.3977 195.776 26.5795C195.776 22.7727 196.338 19.5284 197.463 16.8466C198.6 14.1648 200.219 12.125 202.321 10.7273C204.435 9.31818 206.952 8.61364 209.873 8.61364C212.793 8.61364 215.304 9.31818 217.407 10.7273C219.52 12.1364 221.145 14.1818 222.282 16.8636C223.418 19.5341 223.98 22.7727 223.969 26.5795C223.969 30.4091 223.401 33.6818 222.265 36.3977C221.14 39.1136 219.526 41.1875 217.424 42.6193C215.321 44.0511 212.804 44.767 209.873 44.767ZM209.873 38.6477C211.873 38.6477 213.469 37.642 214.662 35.6307C215.855 33.6193 216.446 30.6023 216.435 26.5795C216.435 23.9318 216.162 21.7273 215.617 19.9659C215.083 18.2045 214.321 16.8807 213.333 15.9943C212.355 15.108 211.202 14.6648 209.873 14.6648C207.884 14.6648 206.293 15.6591 205.1 17.6477C203.907 19.6364 203.304 22.6136 203.293 26.5795C203.293 29.2614 203.56 31.5 204.094 33.2955C204.64 35.0795 205.407 36.4205 206.395 37.3182C207.384 38.2045 208.543 38.6477 209.873 38.6477ZM239.664 38.6818V14.5455H245.766V38.6818H239.664ZM230.647 29.6648V23.5625H254.783V29.6648H230.647Z" fill="black"/>
<path d="M114.039 69.3636V81H112.63V70.6136H106.767V81H105.358V69.3636H114.039ZM116.7 84.2727V72.2727H117.995V73.6591H118.154C118.253 73.5076 118.389 73.3144 118.564 73.0795C118.742 72.8409 118.995 72.6288 119.325 72.4432C119.658 72.2538 120.109 72.1591 120.677 72.1591C121.412 72.1591 122.06 72.3428 122.62 72.7102C123.181 73.0777 123.618 73.5985 123.933 74.2727C124.247 74.947 124.404 75.7424 124.404 76.6591C124.404 77.5833 124.247 78.3845 123.933 79.0625C123.618 79.7367 123.183 80.2595 122.626 80.6307C122.069 80.9981 121.427 81.1818 120.7 81.1818C120.139 81.1818 119.69 81.089 119.353 80.9034C119.016 80.714 118.757 80.5 118.575 80.2614C118.393 80.0189 118.253 79.8182 118.154 79.6591H118.041V84.2727H116.7ZM118.018 76.6364C118.018 77.2955 118.115 77.8769 118.308 78.3807C118.501 78.8807 118.783 79.2727 119.154 79.5568C119.526 79.8371 119.98 79.9773 120.518 79.9773C121.079 79.9773 121.547 79.8295 121.922 79.5341C122.3 79.2348 122.584 78.8333 122.774 78.3295C122.967 77.822 123.064 77.2576 123.064 76.6364C123.064 76.0227 122.969 75.4697 122.779 74.9773C122.594 74.4811 122.312 74.089 121.933 73.8011C121.558 73.5095 121.086 73.3636 120.518 73.3636C119.973 73.3636 119.514 73.5019 119.143 73.7784C118.772 74.0511 118.492 74.4337 118.302 74.9261C118.113 75.4148 118.018 75.9848 118.018 76.6364ZM129.995 81.1818C129.208 81.1818 128.516 80.9943 127.922 80.6193C127.331 80.2443 126.868 79.7197 126.535 79.0455C126.206 78.3712 126.041 77.5833 126.041 76.6818C126.041 75.7727 126.206 74.9792 126.535 74.3011C126.868 73.6231 127.331 73.0966 127.922 72.7216C128.516 72.3466 129.208 72.1591 129.995 72.1591C130.783 72.1591 131.473 72.3466 132.064 72.7216C132.658 73.0966 133.12 73.6231 133.45 74.3011C133.783 74.9792 133.95 75.7727 133.95 76.6818C133.95 77.5833 133.783 78.3712 133.45 79.0455C133.12 79.7197 132.658 80.2443 132.064 80.6193C131.473 80.9943 130.783 81.1818 129.995 81.1818ZM129.995 79.9773C130.594 79.9773 131.086 79.8239 131.473 79.517C131.859 79.2102 132.145 78.8068 132.331 78.3068C132.516 77.8068 132.609 77.2652 132.609 76.6818C132.609 76.0985 132.516 75.5549 132.331 75.0511C132.145 74.5473 131.859 74.1402 131.473 73.8295C131.086 73.5189 130.594 73.3636 129.995 73.3636C129.397 73.3636 128.904 73.5189 128.518 73.8295C128.132 74.1402 127.846 74.5473 127.66 75.0511C127.475 75.5549 127.382 76.0985 127.382 76.6818C127.382 77.2652 127.475 77.8068 127.66 78.3068C127.846 78.8068 128.132 79.2102 128.518 79.517C128.904 79.8239 129.397 79.9773 129.995 79.9773ZM139.656 81.1818C138.815 81.1818 138.09 80.9962 137.48 80.625C136.874 80.25 136.406 79.7273 136.076 79.0568C135.751 78.3826 135.588 77.5985 135.588 76.7045C135.588 75.8106 135.751 75.0227 136.076 74.3409C136.406 73.6553 136.864 73.1212 137.451 72.7386C138.042 72.3523 138.732 72.1591 139.52 72.1591C139.974 72.1591 140.423 72.2348 140.866 72.3864C141.309 72.5379 141.713 72.7841 142.076 73.125C142.44 73.4621 142.73 73.9091 142.946 74.4659C143.162 75.0227 143.27 75.7083 143.27 76.5227V77.0909H136.542V75.9318H141.906C141.906 75.4394 141.807 75 141.61 74.6136C141.417 74.2273 141.141 73.9223 140.781 73.6989C140.425 73.4754 140.004 73.3636 139.52 73.3636C138.985 73.3636 138.523 73.4962 138.133 73.7614C137.747 74.0227 137.449 74.3636 137.241 74.7841C137.033 75.2045 136.929 75.6553 136.929 76.1364V76.9091C136.929 77.5682 137.042 78.1269 137.27 78.5852C137.501 79.0398 137.821 79.3864 138.23 79.625C138.639 79.8598 139.114 79.9773 139.656 79.9773C140.008 79.9773 140.326 79.928 140.61 79.8295C140.898 79.7273 141.146 79.5758 141.355 79.375C141.563 79.1705 141.724 78.9167 141.838 78.6136L143.133 78.9773C142.997 79.4167 142.768 79.803 142.446 80.1364C142.124 80.4659 141.726 80.7235 141.252 80.9091C140.779 81.0909 140.247 81.1818 139.656 81.1818ZM145.309 81V72.2727H146.65V76.0682H147.537L150.673 72.2727H152.4L148.877 76.4773L152.446 81H150.718L147.855 77.3182H146.65V81H145.309ZM153.403 73.5227V72.2727H160.494V73.5227H157.63V81H156.289V73.5227H153.403ZM165.542 81.1818C164.754 81.1818 164.063 80.9943 163.468 80.6193C162.877 80.2443 162.415 79.7197 162.082 79.0455C161.752 78.3712 161.588 77.5833 161.588 76.6818C161.588 75.7727 161.752 74.9792 162.082 74.3011C162.415 73.6231 162.877 73.0966 163.468 72.7216C164.063 72.3466 164.754 72.1591 165.542 72.1591C166.33 72.1591 167.02 72.3466 167.61 72.7216C168.205 73.0966 168.667 73.6231 168.997 74.3011C169.33 74.9792 169.497 75.7727 169.497 76.6818C169.497 77.5833 169.33 78.3712 168.997 79.0455C168.667 79.7197 168.205 80.2443 167.61 80.6193C167.02 80.9943 166.33 81.1818 165.542 81.1818ZM165.542 79.9773C166.141 79.9773 166.633 79.8239 167.02 79.517C167.406 79.2102 167.692 78.8068 167.877 78.3068C168.063 77.8068 168.156 77.2652 168.156 76.6818C168.156 76.0985 168.063 75.5549 167.877 75.0511C167.692 74.5473 167.406 74.1402 167.02 73.8295C166.633 73.5189 166.141 73.3636 165.542 73.3636C164.944 73.3636 164.451 73.5189 164.065 73.8295C163.679 74.1402 163.393 74.5473 163.207 75.0511C163.021 75.5549 162.929 76.0985 162.929 76.6818C162.929 77.2652 163.021 77.8068 163.207 78.3068C163.393 78.8068 163.679 79.2102 164.065 79.517C164.451 79.8239 164.944 79.9773 165.542 79.9773ZM171.544 81V72.2727H175.112C176.051 72.2727 176.797 72.4848 177.35 72.9091C177.904 73.3333 178.18 73.8939 178.18 74.5909C178.18 75.1212 178.023 75.5322 177.708 75.8239C177.394 76.1117 176.991 76.3068 176.498 76.4091C176.82 76.4545 177.133 76.5682 177.436 76.75C177.743 76.9318 177.996 77.1818 178.197 77.5C178.398 77.8144 178.498 78.2008 178.498 78.6591C178.498 79.1061 178.385 79.5057 178.157 79.858C177.93 80.2102 177.604 80.4886 177.18 80.6932C176.756 80.8977 176.248 81 175.657 81H171.544ZM172.816 79.7727H175.657C176.119 79.7727 176.481 79.6629 176.743 79.4432C177.004 79.2235 177.135 78.9242 177.135 78.5455C177.135 78.0947 177.004 77.7405 176.743 77.483C176.481 77.2216 176.119 77.0909 175.657 77.0909H172.816V79.7727ZM172.816 75.9318H175.112C175.472 75.9318 175.78 75.8826 176.038 75.7841C176.296 75.6818 176.493 75.5379 176.629 75.3523C176.769 75.1629 176.839 74.9394 176.839 74.6818C176.839 74.3144 176.686 74.0265 176.379 73.8182C176.072 73.6061 175.65 73.5 175.112 73.5H172.816V75.9318ZM185.028 84.2727V72.2727H186.324V73.6591H186.483C186.581 73.5076 186.717 73.3144 186.892 73.0795C187.07 72.8409 187.324 72.6288 187.653 72.4432C187.986 72.2538 188.437 72.1591 189.005 72.1591C189.74 72.1591 190.388 72.3428 190.949 72.7102C191.509 73.0777 191.947 73.5985 192.261 74.2727C192.575 74.947 192.733 75.7424 192.733 76.6591C192.733 77.5833 192.575 78.3845 192.261 79.0625C191.947 79.7367 191.511 80.2595 190.954 80.6307C190.397 80.9981 189.755 81.1818 189.028 81.1818C188.467 81.1818 188.019 81.089 187.681 80.9034C187.344 80.714 187.085 80.5 186.903 80.2614C186.721 80.0189 186.581 79.8182 186.483 79.6591H186.369V84.2727H185.028ZM186.346 76.6364C186.346 77.2955 186.443 77.8769 186.636 78.3807C186.829 78.8807 187.111 79.2727 187.483 79.5568C187.854 79.8371 188.308 79.9773 188.846 79.9773C189.407 79.9773 189.875 79.8295 190.25 79.5341C190.628 79.2348 190.913 78.8333 191.102 78.3295C191.295 77.822 191.392 77.2576 191.392 76.6364C191.392 76.0227 191.297 75.4697 191.108 74.9773C190.922 74.4811 190.64 74.089 190.261 73.8011C189.886 73.5095 189.414 73.3636 188.846 73.3636C188.301 73.3636 187.842 73.5019 187.471 73.7784C187.1 74.0511 186.82 74.4337 186.63 74.9261C186.441 75.4148 186.346 75.9848 186.346 76.6364ZM198.437 81.1818C197.596 81.1818 196.871 80.9962 196.261 80.625C195.655 80.25 195.187 79.7273 194.858 79.0568C194.532 78.3826 194.369 77.5985 194.369 76.7045C194.369 75.8106 194.532 75.0227 194.858 74.3409C195.187 73.6553 195.645 73.1212 196.233 72.7386C196.824 72.3523 197.513 72.1591 198.301 72.1591C198.755 72.1591 199.204 72.2348 199.647 72.3864C200.091 72.5379 200.494 72.7841 200.858 73.125C201.221 73.4621 201.511 73.9091 201.727 74.4659C201.943 75.0227 202.051 75.7083 202.051 76.5227V77.0909H195.324V75.9318H200.687C200.687 75.4394 200.589 75 200.392 74.6136C200.199 74.2273 199.922 73.9223 199.562 73.6989C199.206 73.4754 198.786 73.3636 198.301 73.3636C197.767 73.3636 197.305 73.4962 196.914 73.7614C196.528 74.0227 196.231 74.3636 196.022 74.7841C195.814 75.2045 195.71 75.6553 195.71 76.1364V76.9091C195.71 77.5682 195.824 78.1269 196.051 78.5852C196.282 79.0398 196.602 79.3864 197.011 79.625C197.42 79.8598 197.895 79.9773 198.437 79.9773C198.789 79.9773 199.108 79.928 199.392 79.8295C199.68 79.7273 199.928 79.5758 200.136 79.375C200.344 79.1705 200.505 78.9167 200.619 78.6136L201.914 78.9773C201.778 79.4167 201.549 79.803 201.227 80.1364C200.905 80.4659 200.507 80.7235 200.034 80.9091C199.56 81.0909 199.028 81.1818 198.437 81.1818ZM206.659 81.2045C206.106 81.2045 205.604 81.1004 205.153 80.892C204.702 80.6799 204.344 80.375 204.079 79.9773C203.814 79.5758 203.681 79.0909 203.681 78.5227C203.681 78.0227 203.78 77.6174 203.977 77.3068C204.174 76.9924 204.437 76.7462 204.767 76.5682C205.096 76.3902 205.46 76.2576 205.858 76.1705C206.259 76.0795 206.663 76.0076 207.068 75.9545C207.598 75.8864 208.028 75.8352 208.358 75.8011C208.691 75.7633 208.933 75.7008 209.085 75.6136C209.24 75.5265 209.318 75.375 209.318 75.1591V75.1136C209.318 74.553 209.164 74.1174 208.858 73.8068C208.555 73.4962 208.094 73.3409 207.477 73.3409C206.837 73.3409 206.335 73.4811 205.971 73.7614C205.608 74.0417 205.352 74.3409 205.204 74.6591L203.931 74.2045C204.159 73.6742 204.462 73.2614 204.841 72.9659C205.223 72.6667 205.64 72.4583 206.091 72.3409C206.545 72.2197 206.992 72.1591 207.431 72.1591C207.712 72.1591 208.034 72.1932 208.397 72.2614C208.765 72.3258 209.119 72.4602 209.46 72.6648C209.805 72.8693 210.091 73.178 210.318 73.5909C210.545 74.0038 210.659 74.5568 210.659 75.25V81H209.318V79.8182H209.25C209.159 80.0076 209.007 80.2102 208.795 80.4261C208.583 80.642 208.301 80.8258 207.949 80.9773C207.596 81.1288 207.166 81.2045 206.659 81.2045ZM206.863 80C207.394 80 207.841 79.8958 208.204 79.6875C208.572 79.4792 208.848 79.2102 209.034 78.8807C209.223 78.5511 209.318 78.2045 209.318 77.8409V76.6136C209.261 76.6818 209.136 76.7443 208.943 76.8011C208.753 76.8542 208.534 76.9015 208.284 76.9432C208.038 76.9811 207.797 77.0152 207.562 77.0455C207.331 77.072 207.144 77.0947 207 77.1136C206.651 77.1591 206.325 77.233 206.022 77.3352C205.723 77.4337 205.481 77.5833 205.295 77.7841C205.113 77.9811 205.022 78.25 205.022 78.5909C205.022 79.0568 205.195 79.4091 205.539 79.6477C205.888 79.8826 206.329 80 206.863 80ZM212.333 81V79.75H212.652C212.913 79.75 213.131 79.6989 213.305 79.5966C213.479 79.4905 213.619 79.3068 213.725 79.0455C213.835 78.7803 213.919 78.4129 213.975 77.9432C214.036 77.4697 214.08 76.8674 214.106 76.1364L214.265 72.2727H220.083V81H218.743V73.5227H215.538L215.402 76.6364C215.371 77.3523 215.307 77.983 215.208 78.5284C215.114 79.0701 214.968 79.5246 214.771 79.892C214.578 80.2595 214.32 80.536 213.998 80.7216C213.676 80.9072 213.273 81 212.788 81H212.333ZM223.885 79.0227L228.089 72.2727H229.635V81H228.294V74.25L224.112 81H222.544V72.2727H223.885V79.0227ZM231.545 78.7727H232.977C233.007 79.1667 233.185 79.4659 233.511 79.6705C233.841 79.875 234.269 79.9773 234.795 79.9773C235.333 79.9773 235.793 79.8674 236.176 79.6477C236.558 79.4242 236.75 79.0644 236.75 78.5682C236.75 78.2765 236.678 78.0227 236.534 77.8068C236.39 77.5871 236.187 77.4167 235.926 77.2955C235.664 77.1742 235.356 77.1136 235 77.1136H233.5V75.9091H235C235.534 75.9091 235.928 75.7879 236.181 75.5455C236.439 75.303 236.568 75 236.568 74.6364C236.568 74.2462 236.43 73.9337 236.153 73.6989C235.877 73.4602 235.484 73.3409 234.977 73.3409C234.466 73.3409 234.039 73.4564 233.699 73.6875C233.358 73.9148 233.178 74.2083 233.159 74.5682H231.75C231.765 74.0985 231.909 73.6837 232.181 73.3239C232.454 72.9602 232.825 72.6761 233.295 72.4716C233.765 72.2633 234.303 72.1591 234.909 72.1591C235.522 72.1591 236.055 72.267 236.505 72.483C236.96 72.6951 237.31 72.9848 237.556 73.3523C237.806 73.7159 237.931 74.1288 237.931 74.5909C237.931 75.0833 237.793 75.4811 237.517 75.7841C237.24 76.0871 236.894 76.303 236.477 76.4318V76.5227C236.806 76.5455 237.092 76.6515 237.335 76.8409C237.581 77.0265 237.772 77.2708 237.909 77.5739C238.045 77.8731 238.113 78.2045 238.113 78.5682C238.113 79.0985 237.971 79.5606 237.687 79.9545C237.403 80.3447 237.013 80.6477 236.517 80.8636C236.02 81.0758 235.454 81.1818 234.818 81.1818C234.2 81.1818 233.647 81.0814 233.159 80.8807C232.67 80.6761 232.282 80.3939 231.994 80.0341C231.71 79.6705 231.56 79.25 231.545 78.7727ZM243.542 81.1818C242.754 81.1818 242.063 80.9943 241.468 80.6193C240.877 80.2443 240.415 79.7197 240.082 79.0455C239.752 78.3712 239.588 77.5833 239.588 76.6818C239.588 75.7727 239.752 74.9792 240.082 74.3011C240.415 73.6231 240.877 73.0966 241.468 72.7216C242.063 72.3466 242.754 72.1591 243.542 72.1591C244.33 72.1591 245.02 72.3466 245.61 72.7216C246.205 73.0966 246.667 73.6231 246.997 74.3011C247.33 74.9792 247.497 75.7727 247.497 76.6818C247.497 77.5833 247.33 78.3712 246.997 79.0455C246.667 79.7197 246.205 80.2443 245.61 80.6193C245.02 80.9943 244.33 81.1818 243.542 81.1818ZM243.542 79.9773C244.141 79.9773 244.633 79.8239 245.02 79.517C245.406 79.2102 245.692 78.8068 245.877 78.3068C246.063 77.8068 246.156 77.2652 246.156 76.6818C246.156 76.0985 246.063 75.5549 245.877 75.0511C245.692 74.5473 245.406 74.1402 245.02 73.8295C244.633 73.5189 244.141 73.3636 243.542 73.3636C242.944 73.3636 242.451 73.5189 242.065 73.8295C241.679 74.1402 241.393 74.5473 241.207 75.0511C241.021 75.5549 240.929 76.0985 240.929 76.6818C240.929 77.2652 241.021 77.8068 241.207 78.3068C241.393 78.8068 241.679 79.2102 242.065 79.517C242.451 79.8239 242.944 79.9773 243.542 79.9773ZM249.544 81V72.2727H253.112C254.051 72.2727 254.797 72.4848 255.35 72.9091C255.904 73.3333 256.18 73.8939 256.18 74.5909C256.18 75.1212 256.023 75.5322 255.708 75.8239C255.394 76.1117 254.991 76.3068 254.498 76.4091C254.82 76.4545 255.133 76.5682 255.436 76.75C255.743 76.9318 255.996 77.1818 256.197 77.5C256.398 77.8144 256.498 78.2008 256.498 78.6591C256.498 79.1061 256.385 79.5057 256.157 79.858C255.93 80.2102 255.604 80.4886 255.18 80.6932C254.756 80.8977 254.248 81 253.657 81H249.544ZM250.816 79.7727H253.657C254.119 79.7727 254.481 79.6629 254.743 79.4432C255.004 79.2235 255.135 78.9242 255.135 78.5455C255.135 78.0947 255.004 77.7405 254.743 77.483C254.481 77.2216 254.119 77.0909 253.657 77.0909H250.816V79.7727ZM250.816 75.9318H253.112C253.472 75.9318 253.78 75.8826 254.038 75.7841C254.296 75.6818 254.493 75.5379 254.629 75.3523C254.769 75.1629 254.839 74.9394 254.839 74.6818C254.839 74.3144 254.686 74.0265 254.379 73.8182C254.072 73.6061 253.65 73.5 253.112 73.5H250.816V75.9318ZM261.096 81.2045C260.543 81.2045 260.041 81.1004 259.591 80.892C259.14 80.6799 258.782 80.375 258.517 79.9773C258.252 79.5758 258.119 79.0909 258.119 78.5227C258.119 78.0227 258.217 77.6174 258.414 77.3068C258.611 76.9924 258.875 76.7462 259.204 76.5682C259.534 76.3902 259.897 76.2576 260.295 76.1705C260.697 76.0795 261.1 76.0076 261.505 75.9545C262.036 75.8864 262.466 75.8352 262.795 75.8011C263.128 75.7633 263.371 75.7008 263.522 75.6136C263.678 75.5265 263.755 75.375 263.755 75.1591V75.1136C263.755 74.553 263.602 74.1174 263.295 73.8068C262.992 73.4962 262.532 73.3409 261.914 73.3409C261.274 73.3409 260.772 73.4811 260.409 73.7614C260.045 74.0417 259.789 74.3409 259.642 74.6591L258.369 74.2045C258.596 73.6742 258.899 73.2614 259.278 72.9659C259.661 72.6667 260.077 72.4583 260.528 72.3409C260.983 72.2197 261.43 72.1591 261.869 72.1591C262.149 72.1591 262.471 72.1932 262.835 72.2614C263.202 72.3258 263.556 72.4602 263.897 72.6648C264.242 72.8693 264.528 73.178 264.755 73.5909C264.983 74.0038 265.096 74.5568 265.096 75.25V81H263.755V79.8182H263.687C263.596 80.0076 263.445 80.2102 263.233 80.4261C263.02 80.642 262.738 80.8258 262.386 80.9773C262.034 81.1288 261.604 81.2045 261.096 81.2045ZM261.301 80C261.831 80 262.278 79.8958 262.642 79.6875C263.009 79.4792 263.286 79.2102 263.471 78.8807C263.661 78.5511 263.755 78.2045 263.755 77.8409V76.6136C263.699 76.6818 263.574 76.7443 263.38 76.8011C263.191 76.8542 262.971 76.9015 262.721 76.9432C262.475 76.9811 262.234 77.0152 262 77.0455C261.769 77.072 261.581 77.0947 261.437 77.1136C261.089 77.1591 260.763 77.233 260.46 77.3352C260.161 77.4337 259.918 77.5833 259.733 77.7841C259.551 77.9811 259.46 78.25 259.46 78.5909C259.46 79.0568 259.632 79.4091 259.977 79.6477C260.325 79.8826 260.767 80 261.301 80ZM273.385 76.0227V77.2727H268.566V76.0227H273.385ZM268.885 72.2727V81H267.544V72.2727H268.885ZM274.407 72.2727V81H273.066V72.2727H274.407ZM280.402 81.1818C279.614 81.1818 278.922 80.9943 278.328 80.6193C277.737 80.2443 277.275 79.7197 276.941 79.0455C276.612 78.3712 276.447 77.5833 276.447 76.6818C276.447 75.7727 276.612 74.9792 276.941 74.3011C277.275 73.6231 277.737 73.0966 278.328 72.7216C278.922 72.3466 279.614 72.1591 280.402 72.1591C281.19 72.1591 281.879 72.3466 282.47 72.7216C283.065 73.0966 283.527 73.6231 283.856 74.3011C284.19 74.9792 284.356 75.7727 284.356 76.6818C284.356 77.5833 284.19 78.3712 283.856 79.0455C283.527 79.7197 283.065 80.2443 282.47 80.6193C281.879 80.9943 281.19 81.1818 280.402 81.1818ZM280.402 79.9773C281 79.9773 281.493 79.8239 281.879 79.517C282.265 79.2102 282.551 78.8068 282.737 78.3068C282.922 77.8068 283.015 77.2652 283.015 76.6818C283.015 76.0985 282.922 75.5549 282.737 75.0511C282.551 74.5473 282.265 74.1402 281.879 73.8295C281.493 73.5189 281 73.3636 280.402 73.3636C279.803 73.3636 279.311 73.5189 278.924 73.8295C278.538 74.1402 278.252 74.5473 278.066 75.0511C277.881 75.5549 277.788 76.0985 277.788 76.6818C277.788 77.2652 277.881 77.8068 278.066 78.3068C278.252 78.8068 278.538 79.2102 278.924 79.517C279.311 79.8239 279.803 79.9773 280.402 79.9773Z" fill="#3C3C3C"/>
<path d="M462.05 44.4773C459.641 44.4773 457.493 44.0341 455.607 43.1477C453.732 42.2614 452.243 41.0398 451.141 39.483C450.039 37.9261 449.465 36.142 449.42 34.1307H456.579C456.658 35.483 457.226 36.5795 458.283 37.4205C459.34 38.2614 460.596 38.6818 462.05 38.6818C463.209 38.6818 464.232 38.4261 465.118 37.9148C466.016 37.392 466.715 36.6705 467.215 35.75C467.726 34.8182 467.982 33.75 467.982 32.5455C467.982 31.3182 467.721 30.2386 467.198 29.3068C466.687 28.375 465.976 27.6477 465.067 27.125C464.158 26.6023 463.118 26.3352 461.948 26.3239C460.925 26.3239 459.931 26.5341 458.965 26.9545C458.01 27.375 457.266 27.9489 456.732 28.6761L450.17 27.5L451.823 9.09091H473.164V15.125H457.908L457.005 23.8693H457.209C457.823 23.0057 458.749 22.2898 459.988 21.7216C461.226 21.1534 462.613 20.8693 464.147 20.8693C466.249 20.8693 468.124 21.3636 469.772 22.3523C471.42 23.3409 472.721 24.6989 473.675 26.4261C474.63 28.142 475.101 30.1193 475.09 32.358C475.101 34.7102 474.556 36.8011 473.454 38.6307C472.363 40.4489 470.834 41.8807 468.868 42.9261C466.914 43.9602 464.641 44.4773 462.05 44.4773ZM493.925 44.767C490.993 44.7557 488.471 44.0341 486.357 42.6023C484.255 41.1705 482.635 39.0966 481.499 36.3807C480.374 33.6648 479.817 30.3977 479.829 26.5795C479.829 22.7727 480.391 19.5284 481.516 16.8466C482.653 14.1648 484.272 12.125 486.374 10.7273C488.488 9.31818 491.005 8.61364 493.925 8.61364C496.846 8.61364 499.357 9.31818 501.459 10.7273C503.573 12.1364 505.198 14.1818 506.334 16.8636C507.471 19.5341 508.033 22.7727 508.022 26.5795C508.022 30.4091 507.454 33.6818 506.317 36.3977C505.192 39.1136 503.579 41.1875 501.476 42.6193C499.374 44.0511 496.857 44.767 493.925 44.767ZM493.925 38.6477C495.925 38.6477 497.522 37.642 498.715 35.6307C499.908 33.6193 500.499 30.6023 500.488 26.5795C500.488 23.9318 500.215 21.7273 499.67 19.9659C499.135 18.2045 498.374 16.8807 497.385 15.9943C496.408 15.108 495.255 14.6648 493.925 14.6648C491.937 14.6648 490.346 15.6591 489.153 17.6477C487.959 19.6364 487.357 22.6136 487.346 26.5795C487.346 29.2614 487.613 31.5 488.147 33.2955C488.692 35.0795 489.459 36.4205 490.448 37.3182C491.437 38.2045 492.596 38.6477 493.925 38.6477ZM523.716 38.6818V14.5455H529.819V38.6818H523.716ZM514.699 29.6648V23.5625H538.836V29.6648H514.699Z" fill="black"/>
<path d="M406.181 73H404.772C404.689 72.5947 404.543 72.2386 404.334 71.9318C404.13 71.625 403.88 71.3674 403.584 71.1591C403.293 70.947 402.969 70.7879 402.613 70.6818C402.257 70.5758 401.885 70.5227 401.499 70.5227C400.795 70.5227 400.156 70.7008 399.584 71.0568C399.016 71.4129 398.564 71.9375 398.226 72.6307C397.893 73.3239 397.726 74.1742 397.726 75.1818C397.726 76.1894 397.893 77.0398 398.226 77.733C398.564 78.4261 399.016 78.9508 399.584 79.3068C400.156 79.6629 400.795 79.8409 401.499 79.8409C401.885 79.8409 402.257 79.7879 402.613 79.6818C402.969 79.5758 403.293 79.4186 403.584 79.2102C403.88 78.9981 404.13 78.7386 404.334 78.4318C404.543 78.1212 404.689 77.7652 404.772 77.3636H406.181C406.075 77.9583 405.882 78.4905 405.601 78.9602C405.321 79.4299 404.973 79.8295 404.556 80.1591C404.139 80.4848 403.671 80.733 403.153 80.9034C402.637 81.0739 402.086 81.1591 401.499 81.1591C400.507 81.1591 399.624 80.9167 398.851 80.4318C398.079 79.947 397.471 79.2576 397.028 78.3636C396.584 77.4697 396.363 76.4091 396.363 75.1818C396.363 73.9545 396.584 72.8939 397.028 72C397.471 71.1061 398.079 70.4167 398.851 69.9318C399.624 69.447 400.507 69.2045 401.499 69.2045C402.086 69.2045 402.637 69.2898 403.153 69.4602C403.671 69.6307 404.139 69.8807 404.556 70.2102C404.973 70.536 405.321 70.9337 405.601 71.4034C405.882 71.8693 406.075 72.4015 406.181 73ZM408.276 81V72.2727H415.14V81H413.799V73.5227H409.617V81H408.276ZM421.248 81.1818C420.407 81.1818 419.681 80.9962 419.072 80.625C418.465 80.25 417.998 79.7273 417.668 79.0568C417.342 78.3826 417.18 77.5985 417.18 76.7045C417.18 75.8106 417.342 75.0227 417.668 74.3409C417.998 73.6553 418.456 73.1212 419.043 72.7386C419.634 72.3523 420.323 72.1591 421.111 72.1591C421.566 72.1591 422.015 72.2348 422.458 72.3864C422.901 72.5379 423.305 72.7841 423.668 73.125C424.032 73.4621 424.322 73.9091 424.537 74.4659C424.753 75.0227 424.861 75.7083 424.861 76.5227V77.0909H418.134V75.9318H423.498C423.498 75.4394 423.399 75 423.202 74.6136C423.009 74.2273 422.733 73.9223 422.373 73.6989C422.017 73.4754 421.596 73.3636 421.111 73.3636C420.577 73.3636 420.115 73.4962 419.725 73.7614C419.339 74.0227 419.041 74.3636 418.833 74.7841C418.625 75.2045 418.52 75.6553 418.52 76.1364V76.9091C418.52 77.5682 418.634 78.1269 418.861 78.5852C419.092 79.0398 419.412 79.3864 419.822 79.625C420.231 79.8598 420.706 79.9773 421.248 79.9773C421.6 79.9773 421.918 79.928 422.202 79.8295C422.49 79.7273 422.738 79.5758 422.947 79.375C423.155 79.1705 423.316 78.9167 423.43 78.6136L424.725 78.9773C424.589 79.4167 424.359 79.803 424.037 80.1364C423.715 80.4659 423.318 80.7235 422.844 80.9091C422.371 81.0909 421.839 81.1818 421.248 81.1818ZM433.765 72.2727V79.75H434.992V83.8182H433.651V81H426.901V72.2727H428.242V79.75H432.424V72.2727H433.765ZM438.398 79.0227L442.603 72.2727H444.148V81H442.807V74.25L438.626 81H437.057V72.2727H438.398V79.0227ZM449.172 81.2045C448.619 81.2045 448.117 81.1004 447.667 80.892C447.216 80.6799 446.858 80.375 446.593 79.9773C446.328 79.5758 446.195 79.0909 446.195 78.5227C446.195 78.0227 446.294 77.6174 446.491 77.3068C446.688 76.9924 446.951 76.7462 447.28 76.5682C447.61 76.3902 447.974 76.2576 448.371 76.1705C448.773 76.0795 449.176 76.0076 449.581 75.9545C450.112 75.8864 450.542 75.8352 450.871 75.8011C451.205 75.7633 451.447 75.7008 451.599 75.6136C451.754 75.5265 451.831 75.375 451.831 75.1591V75.1136C451.831 74.553 451.678 74.1174 451.371 73.8068C451.068 73.4962 450.608 73.3409 449.991 73.3409C449.35 73.3409 448.849 73.4811 448.485 73.7614C448.121 74.0417 447.866 74.3409 447.718 74.6591L446.445 74.2045C446.672 73.6742 446.975 73.2614 447.354 72.9659C447.737 72.6667 448.153 72.4583 448.604 72.3409C449.059 72.2197 449.506 72.1591 449.945 72.1591C450.225 72.1591 450.547 72.1932 450.911 72.2614C451.278 72.3258 451.633 72.4602 451.974 72.6648C452.318 72.8693 452.604 73.178 452.831 73.5909C453.059 74.0038 453.172 74.5568 453.172 75.25V81H451.831V79.8182H451.763C451.672 80.0076 451.521 80.2102 451.309 80.4261C451.097 80.642 450.814 80.8258 450.462 80.9773C450.11 81.1288 449.68 81.2045 449.172 81.2045ZM449.377 80C449.907 80 450.354 79.8958 450.718 79.6875C451.085 79.4792 451.362 79.2102 451.547 78.8807C451.737 78.5511 451.831 78.2045 451.831 77.8409V76.6136C451.775 76.6818 451.65 76.7443 451.456 76.8011C451.267 76.8542 451.047 76.9015 450.797 76.9432C450.551 76.9811 450.311 77.0152 450.076 77.0455C449.845 77.072 449.657 77.0947 449.513 77.1136C449.165 77.1591 448.839 77.233 448.536 77.3352C448.237 77.4337 447.994 77.5833 447.809 77.7841C447.627 77.9811 447.536 78.25 447.536 78.5909C447.536 79.0568 447.708 79.4091 448.053 79.6477C448.402 79.8826 448.843 80 449.377 80ZM454.847 81V79.75H455.165C455.427 79.75 455.644 79.6989 455.819 79.5966C455.993 79.4905 456.133 79.3068 456.239 79.0455C456.349 78.7803 456.432 78.4129 456.489 77.9432C456.55 77.4697 456.593 76.8674 456.62 76.1364L456.779 72.2727H462.597V81H461.256V73.5227H458.052L457.915 76.6364C457.885 77.3523 457.821 77.983 457.722 78.5284C457.627 79.0701 457.482 79.5246 457.285 79.892C457.091 80.2595 456.834 80.536 456.512 80.7216C456.19 80.9072 455.787 81 455.302 81H454.847ZM466.398 79.0227L470.603 72.2727H472.148V81H470.807V74.25L466.626 81H465.057V72.2727H466.398V79.0227ZM478.15 81.1818C477.331 81.1818 476.627 80.9886 476.036 80.6023C475.445 80.2159 474.991 79.6837 474.672 79.0057C474.354 78.3277 474.195 77.553 474.195 76.6818C474.195 75.7955 474.358 75.0133 474.684 74.3352C475.013 73.6534 475.472 73.1212 476.059 72.7386C476.65 72.3523 477.339 72.1591 478.127 72.1591C478.741 72.1591 479.294 72.2727 479.786 72.5C480.278 72.7273 480.682 73.0455 480.996 73.4545C481.311 73.8636 481.506 74.3409 481.581 74.8864H480.241C480.138 74.4886 479.911 74.1364 479.559 73.8295C479.21 73.5189 478.741 73.3636 478.15 73.3636C477.627 73.3636 477.169 73.5 476.775 73.7727C476.385 74.0417 476.08 74.4223 475.86 74.9148C475.644 75.4034 475.536 75.9773 475.536 76.6364C475.536 77.3106 475.642 77.8977 475.854 78.3977C476.07 78.8977 476.373 79.286 476.763 79.5625C477.157 79.839 477.619 79.9773 478.15 79.9773C478.498 79.9773 478.814 79.9167 479.099 79.7955C479.383 79.6742 479.623 79.5 479.82 79.2727C480.017 79.0455 480.157 78.7727 480.241 78.4545H481.581C481.506 78.9697 481.318 79.4337 481.019 79.8466C480.724 80.2557 480.331 80.5814 479.843 80.8239C479.358 81.0625 478.794 81.1818 478.15 81.1818ZM482.854 73.5227V72.2727H489.945V73.5227H487.081V81H485.741V73.5227H482.854ZM494.993 81.1818C494.206 81.1818 493.514 80.9943 492.92 80.6193C492.329 80.2443 491.867 79.7197 491.533 79.0455C491.204 78.3712 491.039 77.5833 491.039 76.6818C491.039 75.7727 491.204 74.9792 491.533 74.3011C491.867 73.6231 492.329 73.0966 492.92 72.7216C493.514 72.3466 494.206 72.1591 494.993 72.1591C495.781 72.1591 496.471 72.3466 497.062 72.7216C497.656 73.0966 498.118 73.6231 498.448 74.3011C498.781 74.9792 498.948 75.7727 498.948 76.6818C498.948 77.5833 498.781 78.3712 498.448 79.0455C498.118 79.7197 497.656 80.2443 497.062 80.6193C496.471 80.9943 495.781 81.1818 494.993 81.1818ZM494.993 79.9773C495.592 79.9773 496.084 79.8239 496.471 79.517C496.857 79.2102 497.143 78.8068 497.329 78.3068C497.514 77.8068 497.607 77.2652 497.607 76.6818C497.607 76.0985 497.514 75.5549 497.329 75.0511C497.143 74.5473 496.857 74.1402 496.471 73.8295C496.084 73.5189 495.592 73.3636 494.993 73.3636C494.395 73.3636 493.903 73.5189 493.516 73.8295C493.13 74.1402 492.844 74.5473 492.658 75.0511C492.473 75.5549 492.38 76.0985 492.38 76.6818C492.38 77.2652 492.473 77.8068 492.658 78.3068C492.844 78.8068 493.13 79.2102 493.516 79.517C493.903 79.8239 494.395 79.9773 494.993 79.9773ZM500.995 81V72.2727H504.563C505.502 72.2727 506.249 72.4848 506.802 72.9091C507.355 73.3333 507.631 73.8939 507.631 74.5909C507.631 75.1212 507.474 75.5322 507.16 75.8239C506.845 76.1117 506.442 76.3068 505.949 76.4091C506.271 76.4545 506.584 76.5682 506.887 76.75C507.194 76.9318 507.448 77.1818 507.648 77.5C507.849 77.8144 507.949 78.2008 507.949 78.6591C507.949 79.1061 507.836 79.5057 507.608 79.858C507.381 80.2102 507.055 80.4886 506.631 80.6932C506.207 80.8977 505.699 81 505.108 81H500.995ZM502.268 79.7727H505.108C505.571 79.7727 505.932 79.6629 506.194 79.4432C506.455 79.2235 506.586 78.9242 506.586 78.5455C506.586 78.0947 506.455 77.7405 506.194 77.483C505.932 77.2216 505.571 77.0909 505.108 77.0909H502.268V79.7727ZM502.268 75.9318H504.563C504.923 75.9318 505.232 75.8826 505.489 75.7841C505.747 75.6818 505.944 75.5379 506.08 75.3523C506.22 75.1629 506.29 74.9394 506.29 74.6818C506.29 74.3144 506.137 74.0265 505.83 73.8182C505.523 73.6061 505.101 73.5 504.563 73.5H502.268V75.9318ZM514.479 81V72.2727H518.047C518.987 72.2727 519.733 72.4848 520.286 72.9091C520.839 73.3333 521.116 73.8939 521.116 74.5909C521.116 75.1212 520.958 75.5322 520.644 75.8239C520.33 76.1117 519.926 76.3068 519.434 76.4091C519.756 76.4545 520.068 76.5682 520.371 76.75C520.678 76.9318 520.932 77.1818 521.133 77.5C521.333 77.8144 521.434 78.2008 521.434 78.6591C521.434 79.1061 521.32 79.5057 521.093 79.858C520.866 80.2102 520.54 80.4886 520.116 80.6932C519.691 80.8977 519.184 81 518.593 81H514.479ZM515.752 79.7727H518.593C519.055 79.7727 519.417 79.6629 519.678 79.4432C519.939 79.2235 520.07 78.9242 520.07 78.5455C520.07 78.0947 519.939 77.7405 519.678 77.483C519.417 77.2216 519.055 77.0909 518.593 77.0909H515.752V79.7727ZM515.752 75.9318H518.047C518.407 75.9318 518.716 75.8826 518.974 75.7841C519.231 75.6818 519.428 75.5379 519.564 75.3523C519.705 75.1629 519.775 74.9394 519.775 74.6818C519.775 74.3144 519.621 74.0265 519.314 73.8182C519.008 73.6061 518.585 73.5 518.047 73.5H515.752V75.9318ZM527.964 81V72.2727H529.305V76.0682H530.191L533.327 72.2727H535.055L531.532 76.4773L535.1 81H533.373L530.509 77.3182H529.305V81H527.964ZM539.743 81.1818C538.956 81.1818 538.264 80.9943 537.67 80.6193C537.079 80.2443 536.617 79.7197 536.283 79.0455C535.954 78.3712 535.789 77.5833 535.789 76.6818C535.789 75.7727 535.954 74.9792 536.283 74.3011C536.617 73.6231 537.079 73.0966 537.67 72.7216C538.264 72.3466 538.956 72.1591 539.743 72.1591C540.531 72.1591 541.221 72.3466 541.812 72.7216C542.406 73.0966 542.868 73.6231 543.198 74.3011C543.531 74.9792 543.698 75.7727 543.698 76.6818C543.698 77.5833 543.531 78.3712 543.198 79.0455C542.868 79.7197 542.406 80.2443 541.812 80.6193C541.221 80.9943 540.531 81.1818 539.743 81.1818ZM539.743 79.9773C540.342 79.9773 540.834 79.8239 541.221 79.517C541.607 79.2102 541.893 78.8068 542.079 78.3068C542.264 77.8068 542.357 77.2652 542.357 76.6818C542.357 76.0985 542.264 75.5549 542.079 75.0511C541.893 74.5473 541.607 74.1402 541.221 73.8295C540.834 73.5189 540.342 73.3636 539.743 73.3636C539.145 73.3636 538.653 73.5189 538.266 73.8295C537.88 74.1402 537.594 74.5473 537.408 75.0511C537.223 75.5549 537.13 76.0985 537.13 76.6818C537.13 77.2652 537.223 77.8068 537.408 78.3068C537.594 78.8068 537.88 79.2102 538.266 79.517C538.653 79.8239 539.145 79.9773 539.743 79.9773ZM550.518 79.1818L553.563 72.2727H554.836L551.063 81H549.972L546.268 72.2727H547.518L550.518 79.1818ZM547.086 72.2727V81H545.745V72.2727H547.086ZM553.949 81V72.2727H555.29V81H553.949ZM560.313 81.2045C559.76 81.2045 559.258 81.1004 558.807 80.892C558.357 80.6799 557.999 80.375 557.733 79.9773C557.468 79.5758 557.336 79.0909 557.336 78.5227C557.336 78.0227 557.434 77.6174 557.631 77.3068C557.828 76.9924 558.091 76.7462 558.421 76.5682C558.751 76.3902 559.114 76.2576 559.512 76.1705C559.913 76.0795 560.317 76.0076 560.722 75.9545C561.252 75.8864 561.682 75.8352 562.012 75.8011C562.345 75.7633 562.588 75.7008 562.739 75.6136C562.894 75.5265 562.972 75.375 562.972 75.1591V75.1136C562.972 74.553 562.819 74.1174 562.512 73.8068C562.209 73.4962 561.749 73.3409 561.131 73.3409C560.491 73.3409 559.989 73.4811 559.626 73.7614C559.262 74.0417 559.006 74.3409 558.858 74.6591L557.586 74.2045C557.813 73.6742 558.116 73.2614 558.495 72.9659C558.877 72.6667 559.294 72.4583 559.745 72.3409C560.199 72.2197 560.646 72.1591 561.086 72.1591C561.366 72.1591 561.688 72.1932 562.052 72.2614C562.419 72.3258 562.773 72.4602 563.114 72.6648C563.459 72.8693 563.745 73.178 563.972 73.5909C564.199 74.0038 564.313 74.5568 564.313 75.25V81H562.972V79.8182H562.904C562.813 80.0076 562.662 80.2102 562.449 80.4261C562.237 80.642 561.955 80.8258 561.603 80.9773C561.251 81.1288 560.821 81.2045 560.313 81.2045ZM560.518 80C561.048 80 561.495 79.8958 561.858 79.6875C562.226 79.4792 562.502 79.2102 562.688 78.8807C562.877 78.5511 562.972 78.2045 562.972 77.8409V76.6136C562.915 76.6818 562.79 76.7443 562.597 76.8011C562.408 76.8542 562.188 76.9015 561.938 76.9432C561.692 76.9811 561.451 77.0152 561.216 77.0455C560.985 77.072 560.798 77.0947 560.654 77.1136C560.305 77.1591 559.98 77.233 559.677 77.3352C559.377 77.4337 559.135 77.5833 558.949 77.7841C558.768 77.9811 558.677 78.25 558.677 78.5909C558.677 79.0568 558.849 79.4091 559.194 79.6477C559.542 79.8826 559.983 80 560.518 80ZM572.601 76.0227V77.2727H567.783V76.0227H572.601ZM568.101 72.2727V81H566.76V72.2727H568.101ZM573.624 72.2727V81H572.283V72.2727H573.624ZM575.141 83.5V79.75H575.868C576.046 79.5644 576.2 79.3636 576.329 79.1477C576.457 78.9318 576.569 78.6761 576.664 78.3807C576.762 78.0814 576.846 77.7178 576.914 77.2898C576.982 76.858 577.043 76.3371 577.096 75.7273L577.391 72.2727H582.937V79.75H584.278V83.5H582.937V81H576.482V83.5H575.141ZM577.391 79.75H581.596V73.5227H578.641L578.414 75.7273C578.319 76.6402 578.202 77.4375 578.062 78.1193C577.921 78.8011 577.698 79.3447 577.391 79.75ZM589.716 81.1818C588.876 81.1818 588.15 80.9962 587.54 80.625C586.934 80.25 586.466 79.7273 586.137 79.0568C585.811 78.3826 585.648 77.5985 585.648 76.7045C585.648 75.8106 585.811 75.0227 586.137 74.3409C586.466 73.6553 586.925 73.1212 587.512 72.7386C588.103 72.3523 588.792 72.1591 589.58 72.1591C590.035 72.1591 590.483 72.2348 590.927 72.3864C591.37 72.5379 591.773 72.7841 592.137 73.125C592.501 73.4621 592.79 73.9091 593.006 74.4659C593.222 75.0227 593.33 75.7083 593.33 76.5227V77.0909H586.603V75.9318H591.966C591.966 75.4394 591.868 75 591.671 74.6136C591.478 74.2273 591.201 73.9223 590.841 73.6989C590.485 73.4754 590.065 73.3636 589.58 73.3636C589.046 73.3636 588.584 73.4962 588.194 73.7614C587.807 74.0227 587.51 74.3636 587.302 74.7841C587.093 75.2045 586.989 75.6553 586.989 76.1364V76.9091C586.989 77.5682 587.103 78.1269 587.33 78.5852C587.561 79.0398 587.881 79.3864 588.29 79.625C588.699 79.8598 589.175 79.9773 589.716 79.9773C590.069 79.9773 590.387 79.928 590.671 79.8295C590.959 79.7273 591.207 79.5758 591.415 79.375C591.624 79.1705 591.785 78.9167 591.898 78.6136L593.194 78.9773C593.057 79.4167 592.828 79.803 592.506 80.1364C592.184 80.4659 591.787 80.7235 591.313 80.9091C590.84 81.0909 590.307 81.1818 589.716 81.1818Z" fill="#3C3C3C"/>
<path d="M94.6303 171.477C92.2212 171.477 90.0735 171.034 88.1871 170.148C86.3121 169.261 84.8235 168.04 83.7212 166.483C82.619 164.926 82.0451 163.142 81.9996 161.131H89.1587C89.2383 162.483 89.8065 163.58 90.8633 164.42C91.9201 165.261 93.1758 165.682 94.6303 165.682C95.7894 165.682 96.8121 165.426 97.6985 164.915C98.5962 164.392 99.2951 163.67 99.7951 162.75C100.306 161.818 100.562 160.75 100.562 159.545C100.562 158.318 100.301 157.239 99.7781 156.307C99.2667 155.375 98.5565 154.648 97.6474 154.125C96.7383 153.602 95.6985 153.335 94.5281 153.324C93.5053 153.324 92.511 153.534 91.5451 153.955C90.5906 154.375 89.8462 154.949 89.3121 155.676L82.7496 154.5L84.4031 136.091H105.744V142.125H90.4883L89.5849 150.869H89.7894C90.4031 150.006 91.3292 149.29 92.5678 148.722C93.8065 148.153 95.1928 147.869 96.7269 147.869C98.8292 147.869 100.704 148.364 102.352 149.352C104 150.341 105.301 151.699 106.255 153.426C107.21 155.142 107.681 157.119 107.67 159.358C107.681 161.71 107.136 163.801 106.034 165.631C104.943 167.449 103.414 168.881 101.449 169.926C99.494 170.96 97.2212 171.477 94.6303 171.477ZM126.505 171.767C123.574 171.756 121.051 171.034 118.937 169.602C116.835 168.17 115.216 166.097 114.079 163.381C112.954 160.665 112.397 157.398 112.409 153.58C112.409 149.773 112.971 146.528 114.096 143.847C115.233 141.165 116.852 139.125 118.954 137.727C121.068 136.318 123.585 135.614 126.505 135.614C129.426 135.614 131.937 136.318 134.039 137.727C136.153 139.136 137.778 141.182 138.914 143.864C140.051 146.534 140.613 149.773 140.602 153.58C140.602 157.409 140.034 160.682 138.897 163.398C137.772 166.114 136.159 168.187 134.056 169.619C131.954 171.051 129.437 171.767 126.505 171.767ZM126.505 165.648C128.505 165.648 130.102 164.642 131.295 162.631C132.488 160.619 133.079 157.602 133.068 153.58C133.068 150.932 132.795 148.727 132.25 146.966C131.716 145.205 130.954 143.881 129.966 142.994C128.988 142.108 127.835 141.665 126.505 141.665C124.517 141.665 122.926 142.659 121.733 144.648C120.539 146.636 119.937 149.614 119.926 153.58C119.926 156.261 120.193 158.5 120.727 160.295C121.272 162.08 122.039 163.42 123.028 164.318C124.017 165.205 125.176 165.648 126.505 165.648ZM159.552 171.767C156.62 171.756 154.098 171.034 151.984 169.602C149.882 168.17 148.262 166.097 147.126 163.381C146.001 160.665 145.444 157.398 145.456 153.58C145.456 149.773 146.018 146.528 147.143 143.847C148.279 141.165 149.899 139.125 152.001 137.727C154.115 136.318 156.632 135.614 159.552 135.614C162.473 135.614 164.984 136.318 167.086 137.727C169.2 139.136 170.825 141.182 171.961 143.864C173.098 146.534 173.66 149.773 173.649 153.58C173.649 157.409 173.081 160.682 171.944 163.398C170.819 166.114 169.206 168.187 167.103 169.619C165.001 171.051 162.484 171.767 159.552 171.767ZM159.552 165.648C161.552 165.648 163.149 164.642 164.342 162.631C165.535 160.619 166.126 157.602 166.115 153.58C166.115 150.932 165.842 148.727 165.297 146.966C164.762 145.205 164.001 143.881 163.012 142.994C162.035 142.108 160.882 141.665 159.552 141.665C157.564 141.665 155.973 142.659 154.779 144.648C153.586 146.636 152.984 149.614 152.973 153.58C152.973 156.261 153.24 158.5 153.774 160.295C154.319 162.08 155.086 163.42 156.075 164.318C157.064 165.205 158.223 165.648 159.552 165.648ZM192.599 171.767C189.667 171.756 187.145 171.034 185.031 169.602C182.929 168.17 181.309 166.097 180.173 163.381C179.048 160.665 178.491 157.398 178.502 153.58C178.502 149.773 179.065 146.528 180.19 143.847C181.326 141.165 182.946 139.125 185.048 137.727C187.162 136.318 189.679 135.614 192.599 135.614C195.52 135.614 198.031 136.318 200.133 137.727C202.247 139.136 203.872 141.182 205.008 143.864C206.145 146.534 206.707 149.773 206.696 153.58C206.696 157.409 206.127 160.682 204.991 163.398C203.866 166.114 202.252 168.187 200.15 169.619C198.048 171.051 195.531 171.767 192.599 171.767ZM192.599 165.648C194.599 165.648 196.196 164.642 197.389 162.631C198.582 160.619 199.173 157.602 199.162 153.58C199.162 150.932 198.889 148.727 198.343 146.966C197.809 145.205 197.048 143.881 196.059 142.994C195.082 142.108 193.929 141.665 192.599 141.665C190.61 141.665 189.02 142.659 187.826 144.648C186.633 146.636 186.031 149.614 186.02 153.58C186.02 156.261 186.287 158.5 186.821 160.295C187.366 162.08 188.133 163.42 189.122 164.318C190.11 165.205 191.27 165.648 192.599 165.648ZM222.39 165.682V141.545H228.493V165.682H222.39ZM213.373 156.665V150.562H237.51V156.665H213.373ZM271.238 162.972L278.329 144.818H283.852L273.642 171H268.818L258.846 144.818H264.352L271.238 162.972ZM262.699 144.818V171H255.761V144.818H262.699ZM280.136 171V144.818H286.988V171H280.136ZM291.804 153.545V149.778L300.105 143.148C300.741 142.625 301.292 142.153 301.758 141.733C302.224 141.312 302.588 140.886 302.849 140.455C303.11 140.023 303.241 139.545 303.241 139.023C303.241 138.205 302.906 137.574 302.235 137.131C301.565 136.687 300.752 136.466 299.798 136.466C298.775 136.466 297.951 136.716 297.326 137.216C296.713 137.705 296.406 138.415 296.406 139.347H291.377C291.377 137.165 292.173 135.455 293.764 134.216C295.355 132.966 297.389 132.341 299.866 132.341C301.559 132.341 303.031 132.636 304.281 133.227C305.531 133.807 306.497 134.597 307.179 135.597C307.872 136.597 308.218 137.716 308.218 138.955C308.218 139.955 308.008 140.886 307.588 141.75C307.179 142.602 306.542 143.443 305.679 144.273C304.826 145.091 303.724 145.949 302.372 146.847L299.338 149.097V149.284H308.457V153.545H291.804Z" fill="black"/>
<path d="M114.657 196.364V208H113.248V197.614H107.384V208H105.975V196.364H114.657ZM117.317 211.273V199.273H118.613V200.659H118.772C118.87 200.508 119.007 200.314 119.181 200.08C119.359 199.841 119.613 199.629 119.942 199.443C120.275 199.254 120.726 199.159 121.294 199.159C122.029 199.159 122.677 199.343 123.238 199.71C123.798 200.078 124.236 200.598 124.55 201.273C124.864 201.947 125.022 202.742 125.022 203.659C125.022 204.583 124.864 205.384 124.55 206.062C124.236 206.737 123.8 207.259 123.243 207.631C122.686 207.998 122.044 208.182 121.317 208.182C120.757 208.182 120.308 208.089 119.971 207.903C119.633 207.714 119.374 207.5 119.192 207.261C119.01 207.019 118.87 206.818 118.772 206.659H118.658V211.273H117.317ZM118.635 203.636C118.635 204.295 118.732 204.877 118.925 205.381C119.118 205.881 119.4 206.273 119.772 206.557C120.143 206.837 120.597 206.977 121.135 206.977C121.696 206.977 122.164 206.83 122.539 206.534C122.917 206.235 123.202 205.833 123.391 205.33C123.584 204.822 123.681 204.258 123.681 203.636C123.681 203.023 123.586 202.47 123.397 201.977C123.211 201.481 122.929 201.089 122.55 200.801C122.175 200.509 121.703 200.364 121.135 200.364C120.59 200.364 120.132 200.502 119.76 200.778C119.389 201.051 119.109 201.434 118.919 201.926C118.73 202.415 118.635 202.985 118.635 203.636ZM130.613 208.182C129.825 208.182 129.133 207.994 128.539 207.619C127.948 207.244 127.486 206.72 127.152 206.045C126.823 205.371 126.658 204.583 126.658 203.682C126.658 202.773 126.823 201.979 127.152 201.301C127.486 200.623 127.948 200.097 128.539 199.722C129.133 199.347 129.825 199.159 130.613 199.159C131.4 199.159 132.09 199.347 132.681 199.722C133.275 200.097 133.738 200.623 134.067 201.301C134.4 201.979 134.567 202.773 134.567 203.682C134.567 204.583 134.4 205.371 134.067 206.045C133.738 206.72 133.275 207.244 132.681 207.619C132.09 207.994 131.4 208.182 130.613 208.182ZM130.613 206.977C131.211 206.977 131.703 206.824 132.09 206.517C132.476 206.21 132.762 205.807 132.948 205.307C133.133 204.807 133.226 204.265 133.226 203.682C133.226 203.098 133.133 202.555 132.948 202.051C132.762 201.547 132.476 201.14 132.09 200.83C131.703 200.519 131.211 200.364 130.613 200.364C130.014 200.364 129.522 200.519 129.135 200.83C128.749 201.14 128.463 201.547 128.277 202.051C128.092 202.555 127.999 203.098 127.999 203.682C127.999 204.265 128.092 204.807 128.277 205.307C128.463 205.807 128.749 206.21 129.135 206.517C129.522 206.824 130.014 206.977 130.613 206.977ZM137.955 206.023L142.159 199.273H143.705V208H142.364V201.25L138.182 208H136.614V199.273H137.955V206.023ZM145.615 205.773H147.047C147.078 206.167 147.256 206.466 147.581 206.67C147.911 206.875 148.339 206.977 148.865 206.977C149.403 206.977 149.864 206.867 150.246 206.648C150.629 206.424 150.82 206.064 150.82 205.568C150.82 205.277 150.748 205.023 150.604 204.807C150.46 204.587 150.257 204.417 149.996 204.295C149.735 204.174 149.426 204.114 149.07 204.114H147.57V202.909H149.07C149.604 202.909 149.998 202.788 150.252 202.545C150.509 202.303 150.638 202 150.638 201.636C150.638 201.246 150.5 200.934 150.223 200.699C149.947 200.46 149.555 200.341 149.047 200.341C148.536 200.341 148.11 200.456 147.769 200.688C147.428 200.915 147.248 201.208 147.229 201.568H145.82C145.835 201.098 145.979 200.684 146.252 200.324C146.525 199.96 146.896 199.676 147.365 199.472C147.835 199.263 148.373 199.159 148.979 199.159C149.593 199.159 150.125 199.267 150.576 199.483C151.03 199.695 151.381 199.985 151.627 200.352C151.877 200.716 152.002 201.129 152.002 201.591C152.002 202.083 151.864 202.481 151.587 202.784C151.31 203.087 150.964 203.303 150.547 203.432V203.523C150.877 203.545 151.163 203.652 151.405 203.841C151.651 204.027 151.843 204.271 151.979 204.574C152.115 204.873 152.184 205.205 152.184 205.568C152.184 206.098 152.042 206.561 151.757 206.955C151.473 207.345 151.083 207.648 150.587 207.864C150.091 208.076 149.525 208.182 148.888 208.182C148.271 208.182 147.718 208.081 147.229 207.881C146.74 207.676 146.352 207.394 146.064 207.034C145.78 206.67 145.631 206.25 145.615 205.773ZM154.067 208V199.273H157.635C158.575 199.273 159.321 199.485 159.874 199.909C160.427 200.333 160.703 200.894 160.703 201.591C160.703 202.121 160.546 202.532 160.232 202.824C159.917 203.112 159.514 203.307 159.022 203.409C159.344 203.455 159.656 203.568 159.959 203.75C160.266 203.932 160.52 204.182 160.721 204.5C160.921 204.814 161.022 205.201 161.022 205.659C161.022 206.106 160.908 206.506 160.681 206.858C160.453 207.21 160.128 207.489 159.703 207.693C159.279 207.898 158.772 208 158.181 208H154.067ZM155.34 206.773H158.181C158.643 206.773 159.005 206.663 159.266 206.443C159.527 206.223 159.658 205.924 159.658 205.545C159.658 205.095 159.527 204.741 159.266 204.483C159.005 204.222 158.643 204.091 158.181 204.091H155.34V206.773ZM155.34 202.932H157.635C157.995 202.932 158.304 202.883 158.561 202.784C158.819 202.682 159.016 202.538 159.152 202.352C159.292 202.163 159.363 201.939 159.363 201.682C159.363 201.314 159.209 201.027 158.902 200.818C158.596 200.606 158.173 200.5 157.635 200.5H155.34V202.932ZM166.597 208.182C165.809 208.182 165.118 207.994 164.523 207.619C163.932 207.244 163.47 206.72 163.137 206.045C162.807 205.371 162.642 204.583 162.642 203.682C162.642 202.773 162.807 201.979 163.137 201.301C163.47 200.623 163.932 200.097 164.523 199.722C165.118 199.347 165.809 199.159 166.597 199.159C167.385 199.159 168.074 199.347 168.665 199.722C169.26 200.097 169.722 200.623 170.051 201.301C170.385 201.979 170.551 202.773 170.551 203.682C170.551 204.583 170.385 205.371 170.051 206.045C169.722 206.72 169.26 207.244 168.665 207.619C168.074 207.994 167.385 208.182 166.597 208.182ZM166.597 206.977C167.195 206.977 167.688 206.824 168.074 206.517C168.461 206.21 168.747 205.807 168.932 205.307C169.118 204.807 169.211 204.265 169.211 203.682C169.211 203.098 169.118 202.555 168.932 202.051C168.747 201.547 168.461 201.14 168.074 200.83C167.688 200.519 167.195 200.364 166.597 200.364C165.998 200.364 165.506 200.519 165.12 200.83C164.733 201.14 164.447 201.547 164.262 202.051C164.076 202.555 163.983 203.098 163.983 203.682C163.983 204.265 164.076 204.807 164.262 205.307C164.447 205.807 164.733 206.21 165.12 206.517C165.506 206.824 165.998 206.977 166.597 206.977ZM171.667 210.5V206.75H172.394C172.572 206.564 172.725 206.364 172.854 206.148C172.983 205.932 173.095 205.676 173.189 205.381C173.288 205.081 173.371 204.718 173.439 204.29C173.507 203.858 173.568 203.337 173.621 202.727L173.917 199.273H179.462V206.75H180.803V210.5H179.462V208H173.007V210.5H171.667ZM173.917 206.75H178.121V200.523H175.167L174.939 202.727C174.845 203.64 174.727 204.437 174.587 205.119C174.447 205.801 174.223 206.345 173.917 206.75ZM186.128 208.182C185.31 208.182 184.605 207.989 184.015 207.602C183.424 207.216 182.969 206.684 182.651 206.006C182.333 205.328 182.174 204.553 182.174 203.682C182.174 202.795 182.337 202.013 182.662 201.335C182.992 200.653 183.45 200.121 184.037 199.739C184.628 199.352 185.318 199.159 186.105 199.159C186.719 199.159 187.272 199.273 187.765 199.5C188.257 199.727 188.66 200.045 188.975 200.455C189.289 200.864 189.484 201.341 189.56 201.886H188.219C188.117 201.489 187.89 201.136 187.537 200.83C187.189 200.519 186.719 200.364 186.128 200.364C185.605 200.364 185.147 200.5 184.753 200.773C184.363 201.042 184.058 201.422 183.838 201.915C183.623 202.403 183.515 202.977 183.515 203.636C183.515 204.311 183.621 204.898 183.833 205.398C184.049 205.898 184.352 206.286 184.742 206.562C185.136 206.839 185.598 206.977 186.128 206.977C186.477 206.977 186.793 206.917 187.077 206.795C187.361 206.674 187.602 206.5 187.799 206.273C187.996 206.045 188.136 205.773 188.219 205.455H189.56C189.484 205.97 189.297 206.434 188.998 206.847C188.702 207.256 188.31 207.581 187.821 207.824C187.337 208.062 186.772 208.182 186.128 208.182ZM190.833 200.523V199.273H197.924V200.523H195.06V208H193.719V200.523H190.833ZM199.88 208V199.273H203.448C204.387 199.273 205.133 199.485 205.686 199.909C206.239 200.333 206.516 200.894 206.516 201.591C206.516 202.121 206.359 202.532 206.044 202.824C205.73 203.112 205.327 203.307 204.834 203.409C205.156 203.455 205.469 203.568 205.772 203.75C206.078 203.932 206.332 204.182 206.533 204.5C206.734 204.814 206.834 205.201 206.834 205.659C206.834 206.106 206.721 206.506 206.493 206.858C206.266 207.21 205.94 207.489 205.516 207.693C205.092 207.898 204.584 208 203.993 208H199.88ZM201.152 206.773H203.993C204.455 206.773 204.817 206.663 205.078 206.443C205.34 206.223 205.471 205.924 205.471 205.545C205.471 205.095 205.34 204.741 205.078 204.483C204.817 204.222 204.455 204.091 203.993 204.091H201.152V206.773ZM201.152 202.932H203.448C203.808 202.932 204.116 202.883 204.374 202.784C204.632 202.682 204.828 202.538 204.965 202.352C205.105 202.163 205.175 201.939 205.175 201.682C205.175 201.314 205.022 201.027 204.715 200.818C204.408 200.606 203.986 200.5 203.448 200.5H201.152V202.932ZM212.409 208.182C211.622 208.182 210.93 207.994 210.336 207.619C209.745 207.244 209.283 206.72 208.949 206.045C208.62 205.371 208.455 204.583 208.455 203.682C208.455 202.773 208.62 201.979 208.949 201.301C209.283 200.623 209.745 200.097 210.336 199.722C210.93 199.347 211.622 199.159 212.409 199.159C213.197 199.159 213.887 199.347 214.478 199.722C215.072 200.097 215.534 200.623 215.864 201.301C216.197 201.979 216.364 202.773 216.364 203.682C216.364 204.583 216.197 205.371 215.864 206.045C215.534 206.72 215.072 207.244 214.478 207.619C213.887 207.994 213.197 208.182 212.409 208.182ZM212.409 206.977C213.008 206.977 213.5 206.824 213.887 206.517C214.273 206.21 214.559 205.807 214.745 205.307C214.93 204.807 215.023 204.265 215.023 203.682C215.023 203.098 214.93 202.555 214.745 202.051C214.559 201.547 214.273 201.14 213.887 200.83C213.5 200.519 213.008 200.364 212.409 200.364C211.811 200.364 211.319 200.519 210.932 200.83C210.546 201.14 210.26 201.547 210.074 202.051C209.889 202.555 209.796 203.098 209.796 203.682C209.796 204.265 209.889 204.807 210.074 205.307C210.26 205.807 210.546 206.21 210.932 206.517C211.319 206.824 211.811 206.977 212.409 206.977ZM222.911 208V199.273H226.479C227.418 199.273 228.165 199.485 228.718 199.909C229.271 200.333 229.547 200.894 229.547 201.591C229.547 202.121 229.39 202.532 229.076 202.824C228.761 203.112 228.358 203.307 227.865 203.409C228.187 203.455 228.5 203.568 228.803 203.75C229.11 203.932 229.364 204.182 229.564 204.5C229.765 204.814 229.865 205.201 229.865 205.659C229.865 206.106 229.752 206.506 229.525 206.858C229.297 207.21 228.971 207.489 228.547 207.693C228.123 207.898 227.615 208 227.025 208H222.911ZM224.184 206.773H227.025C227.487 206.773 227.848 206.663 228.11 206.443C228.371 206.223 228.502 205.924 228.502 205.545C228.502 205.095 228.371 204.741 228.11 204.483C227.848 204.222 227.487 204.091 227.025 204.091H224.184V206.773ZM224.184 202.932H226.479C226.839 202.932 227.148 202.883 227.405 202.784C227.663 202.682 227.86 202.538 227.996 202.352C228.136 202.163 228.206 201.939 228.206 201.682C228.206 201.314 228.053 201.027 227.746 200.818C227.439 200.606 227.017 200.5 226.479 200.5H224.184V202.932ZM241.168 206.182L244.213 199.273H245.486L241.713 208H240.623L236.918 199.273H238.168L241.168 206.182ZM237.736 199.273V208H236.395V199.273H237.736ZM244.6 208V199.273H245.941V208H244.6ZM252.054 208.182C251.213 208.182 250.488 207.996 249.878 207.625C249.272 207.25 248.804 206.727 248.475 206.057C248.149 205.383 247.986 204.598 247.986 203.705C247.986 202.811 248.149 202.023 248.475 201.341C248.804 200.655 249.263 200.121 249.85 199.739C250.441 199.352 251.13 199.159 251.918 199.159C252.373 199.159 252.821 199.235 253.265 199.386C253.708 199.538 254.111 199.784 254.475 200.125C254.838 200.462 255.128 200.909 255.344 201.466C255.56 202.023 255.668 202.708 255.668 203.523V204.091H248.941V202.932H254.304C254.304 202.439 254.206 202 254.009 201.614C253.816 201.227 253.539 200.922 253.179 200.699C252.823 200.475 252.403 200.364 251.918 200.364C251.384 200.364 250.922 200.496 250.532 200.761C250.145 201.023 249.848 201.364 249.64 201.784C249.431 202.205 249.327 202.655 249.327 203.136V203.909C249.327 204.568 249.441 205.127 249.668 205.585C249.899 206.04 250.219 206.386 250.628 206.625C251.037 206.86 251.513 206.977 252.054 206.977C252.407 206.977 252.725 206.928 253.009 206.83C253.297 206.727 253.545 206.576 253.753 206.375C253.962 206.17 254.123 205.917 254.236 205.614L255.532 205.977C255.395 206.417 255.166 206.803 254.844 207.136C254.522 207.466 254.124 207.723 253.651 207.909C253.177 208.091 252.645 208.182 252.054 208.182ZM261.253 208.182C260.435 208.182 259.73 207.989 259.14 207.602C258.549 207.216 258.094 206.684 257.776 206.006C257.458 205.328 257.299 204.553 257.299 203.682C257.299 202.795 257.462 202.013 257.787 201.335C258.117 200.653 258.575 200.121 259.162 199.739C259.753 199.352 260.443 199.159 261.23 199.159C261.844 199.159 262.397 199.273 262.89 199.5C263.382 199.727 263.785 200.045 264.1 200.455C264.414 200.864 264.609 201.341 264.685 201.886H263.344C263.242 201.489 263.015 201.136 262.662 200.83C262.314 200.519 261.844 200.364 261.253 200.364C260.73 200.364 260.272 200.5 259.878 200.773C259.488 201.042 259.183 201.422 258.963 201.915C258.748 202.403 258.64 202.977 258.64 203.636C258.64 204.311 258.746 204.898 258.958 205.398C259.174 205.898 259.477 206.286 259.867 206.562C260.261 206.839 260.723 206.977 261.253 206.977C261.602 206.977 261.918 206.917 262.202 206.795C262.486 206.674 262.727 206.5 262.924 206.273C263.121 206.045 263.261 205.773 263.344 205.455H264.685C264.609 205.97 264.422 206.434 264.123 206.847C263.827 207.256 263.435 207.581 262.946 207.824C262.462 208.062 261.897 208.182 261.253 208.182ZM271.895 208V200.5H269.577C269.054 200.5 268.643 200.621 268.344 200.864C268.045 201.106 267.895 201.439 267.895 201.864C267.895 202.28 268.03 202.608 268.299 202.847C268.571 203.085 268.944 203.205 269.418 203.205H272.236V204.455H269.418C268.827 204.455 268.318 204.35 267.89 204.142C267.462 203.934 267.132 203.636 266.901 203.25C266.67 202.86 266.554 202.398 266.554 201.864C266.554 201.326 266.676 200.864 266.918 200.477C267.16 200.091 267.507 199.794 267.958 199.585C268.412 199.377 268.952 199.273 269.577 199.273H273.168V208H271.895ZM266.077 208L268.554 203.659H270.009L267.532 208H266.077ZM282.493 199.273V206.75H283.721V210.818H282.38V208H275.63V199.273H276.971V206.75H281.152V199.273H282.493Z" fill="#3C3C3C"/>
<path d="M430.902 171.477C428.493 171.477 426.345 171.034 424.459 170.148C422.584 169.261 421.095 168.04 419.993 166.483C418.89 164.926 418.317 163.142 418.271 161.131H425.43C425.51 162.483 426.078 163.58 427.135 164.42C428.192 165.261 429.447 165.682 430.902 165.682C432.061 165.682 433.084 165.426 433.97 164.915C434.868 164.392 435.567 163.67 436.067 162.75C436.578 161.818 436.834 160.75 436.834 159.545C436.834 158.318 436.572 157.239 436.05 156.307C435.538 155.375 434.828 154.648 433.919 154.125C433.01 153.602 431.97 153.335 430.8 153.324C429.777 153.324 428.782 153.534 427.817 153.955C426.862 154.375 426.118 154.949 425.584 155.676L419.021 154.5L420.675 136.091H442.015V142.125H426.76L425.856 150.869H426.061C426.675 150.006 427.601 149.29 428.839 148.722C430.078 148.153 431.464 147.869 432.998 147.869C435.101 147.869 436.976 148.364 438.623 149.352C440.271 150.341 441.572 151.699 442.527 153.426C443.481 155.142 443.953 157.119 443.942 159.358C443.953 161.71 443.407 163.801 442.305 165.631C441.214 167.449 439.686 168.881 437.72 169.926C435.765 170.96 433.493 171.477 430.902 171.477ZM462.777 171.767C459.845 171.756 457.322 171.034 455.209 169.602C453.106 168.17 451.487 166.097 450.351 163.381C449.226 160.665 448.669 157.398 448.68 153.58C448.68 149.773 449.243 146.528 450.368 143.847C451.504 141.165 453.123 139.125 455.226 137.727C457.339 136.318 459.856 135.614 462.777 135.614C465.697 135.614 468.209 136.318 470.311 137.727C472.425 139.136 474.05 141.182 475.186 143.864C476.322 146.534 476.885 149.773 476.873 153.58C476.873 157.409 476.305 160.682 475.169 163.398C474.044 166.114 472.43 168.187 470.328 169.619C468.226 171.051 465.709 171.767 462.777 171.767ZM462.777 165.648C464.777 165.648 466.373 164.642 467.567 162.631C468.76 160.619 469.351 157.602 469.339 153.58C469.339 150.932 469.067 148.727 468.521 146.966C467.987 145.205 467.226 143.881 466.237 142.994C465.26 142.108 464.106 141.665 462.777 141.665C460.788 141.665 459.197 142.659 458.004 144.648C456.811 146.636 456.209 149.614 456.197 153.58C456.197 156.261 456.464 158.5 456.998 160.295C457.544 162.08 458.311 163.42 459.3 164.318C460.288 165.205 461.447 165.648 462.777 165.648ZM491.78 171L491.746 165.239H492.615C493.229 165.239 493.757 165.091 494.2 164.795C494.655 164.489 495.03 163.994 495.325 163.312C495.621 162.631 495.854 161.727 496.024 160.602C496.194 159.466 496.308 158.068 496.365 156.409L496.791 144.818H516.7V171H509.78V150.528H503.319L502.91 158.523C502.808 160.716 502.541 162.602 502.109 164.182C501.689 165.761 501.104 167.057 500.354 168.068C499.604 169.068 498.7 169.807 497.643 170.284C496.586 170.761 495.359 171 493.961 171H491.78ZM534.261 171.511C531.568 171.511 529.25 170.966 527.307 169.875C525.375 168.773 523.886 167.216 522.841 165.205C521.795 163.182 521.273 160.79 521.273 158.028C521.273 155.335 521.795 152.972 522.841 150.938C523.886 148.903 525.358 147.318 527.256 146.182C529.165 145.045 531.403 144.477 533.971 144.477C535.699 144.477 537.307 144.756 538.795 145.312C540.295 145.858 541.602 146.682 542.716 147.784C543.841 148.886 544.716 150.273 545.341 151.943C545.966 153.602 546.278 155.545 546.278 157.773V159.767H524.17V155.267H539.443C539.443 154.222 539.216 153.295 538.761 152.489C538.307 151.682 537.676 151.051 536.869 150.597C536.074 150.131 535.148 149.898 534.091 149.898C532.988 149.898 532.011 150.153 531.159 150.665C530.318 151.165 529.659 151.841 529.182 152.693C528.704 153.534 528.46 154.472 528.449 155.506V159.784C528.449 161.08 528.687 162.199 529.165 163.142C529.653 164.085 530.341 164.812 531.227 165.324C532.113 165.835 533.165 166.091 534.381 166.091C535.187 166.091 535.926 165.977 536.596 165.75C537.267 165.523 537.841 165.182 538.318 164.727C538.795 164.273 539.159 163.716 539.409 163.057L546.125 163.5C545.784 165.114 545.085 166.523 544.028 167.727C542.983 168.92 541.631 169.852 539.971 170.523C538.324 171.182 536.42 171.511 534.261 171.511ZM548.997 150.528V144.818H572.724V150.528H564.287V171H557.366V150.528H548.997Z" fill="black"/>
<path d="M416.051 196.364V197.614H410.437V208H409.028V196.364H416.051ZM419.43 208.205C418.877 208.205 418.375 208.1 417.925 207.892C417.474 207.68 417.116 207.375 416.851 206.977C416.586 206.576 416.453 206.091 416.453 205.523C416.453 205.023 416.551 204.617 416.748 204.307C416.945 203.992 417.209 203.746 417.538 203.568C417.868 203.39 418.231 203.258 418.629 203.17C419.031 203.08 419.434 203.008 419.839 202.955C420.37 202.886 420.8 202.835 421.129 202.801C421.462 202.763 421.705 202.701 421.856 202.614C422.012 202.527 422.089 202.375 422.089 202.159V202.114C422.089 201.553 421.936 201.117 421.629 200.807C421.326 200.496 420.866 200.341 420.248 200.341C419.608 200.341 419.106 200.481 418.743 200.761C418.379 201.042 418.123 201.341 417.976 201.659L416.703 201.205C416.93 200.674 417.233 200.261 417.612 199.966C417.995 199.667 418.411 199.458 418.862 199.341C419.317 199.22 419.764 199.159 420.203 199.159C420.483 199.159 420.805 199.193 421.169 199.261C421.536 199.326 421.89 199.46 422.231 199.665C422.576 199.869 422.862 200.178 423.089 200.591C423.317 201.004 423.43 201.557 423.43 202.25V208H422.089V206.818H422.021C421.93 207.008 421.779 207.21 421.567 207.426C421.354 207.642 421.072 207.826 420.72 207.977C420.368 208.129 419.938 208.205 419.43 208.205ZM419.635 207C420.165 207 420.612 206.896 420.976 206.688C421.343 206.479 421.62 206.21 421.805 205.881C421.995 205.551 422.089 205.205 422.089 204.841V203.614C422.032 203.682 421.907 203.744 421.714 203.801C421.525 203.854 421.305 203.902 421.055 203.943C420.809 203.981 420.568 204.015 420.334 204.045C420.103 204.072 419.915 204.095 419.771 204.114C419.423 204.159 419.097 204.233 418.794 204.335C418.495 204.434 418.252 204.583 418.067 204.784C417.885 204.981 417.794 205.25 417.794 205.591C417.794 206.057 417.966 206.409 418.311 206.648C418.659 206.883 419.101 207 419.635 207ZM425.878 211.273V199.273H427.173V200.659H427.332C427.431 200.508 427.567 200.314 427.741 200.08C427.919 199.841 428.173 199.629 428.503 199.443C428.836 199.254 429.287 199.159 429.855 199.159C430.59 199.159 431.238 199.343 431.798 199.71C432.359 200.078 432.796 200.598 433.111 201.273C433.425 201.947 433.582 202.742 433.582 203.659C433.582 204.583 433.425 205.384 433.111 206.062C432.796 206.737 432.361 207.259 431.804 207.631C431.247 207.998 430.605 208.182 429.878 208.182C429.317 208.182 428.868 208.089 428.531 207.903C428.194 207.714 427.934 207.5 427.753 207.261C427.571 207.019 427.431 206.818 427.332 206.659H427.219V211.273H425.878ZM427.196 203.636C427.196 204.295 427.292 204.877 427.486 205.381C427.679 205.881 427.961 206.273 428.332 206.557C428.703 206.837 429.158 206.977 429.696 206.977C430.256 206.977 430.724 206.83 431.099 206.534C431.478 206.235 431.762 205.833 431.952 205.33C432.145 204.822 432.241 204.258 432.241 203.636C432.241 203.023 432.147 202.47 431.957 201.977C431.772 201.481 431.489 201.089 431.111 200.801C430.736 200.509 430.264 200.364 429.696 200.364C429.15 200.364 428.692 200.502 428.321 200.778C427.95 201.051 427.669 201.434 427.48 201.926C427.291 202.415 427.196 202.985 427.196 203.636ZM438.196 208.205C437.643 208.205 437.141 208.1 436.69 207.892C436.239 207.68 435.881 207.375 435.616 206.977C435.351 206.576 435.219 206.091 435.219 205.523C435.219 205.023 435.317 204.617 435.514 204.307C435.711 203.992 435.974 203.746 436.304 203.568C436.633 203.39 436.997 203.258 437.395 203.17C437.796 203.08 438.2 203.008 438.605 202.955C439.135 202.886 439.565 202.835 439.895 202.801C440.228 202.763 440.47 202.701 440.622 202.614C440.777 202.527 440.855 202.375 440.855 202.159V202.114C440.855 201.553 440.702 201.117 440.395 200.807C440.092 200.496 439.631 200.341 439.014 200.341C438.374 200.341 437.872 200.481 437.508 200.761C437.145 201.042 436.889 201.341 436.741 201.659L435.469 201.205C435.696 200.674 435.999 200.261 436.378 199.966C436.76 199.667 437.177 199.458 437.628 199.341C438.082 199.22 438.529 199.159 438.969 199.159C439.249 199.159 439.571 199.193 439.934 199.261C440.302 199.326 440.656 199.46 440.997 199.665C441.342 199.869 441.628 200.178 441.855 200.591C442.082 201.004 442.196 201.557 442.196 202.25V208H440.855V206.818H440.787C440.696 207.008 440.544 207.21 440.332 207.426C440.12 207.642 439.838 207.826 439.486 207.977C439.133 208.129 438.703 208.205 438.196 208.205ZM438.4 207C438.931 207 439.378 206.896 439.741 206.688C440.109 206.479 440.385 206.21 440.571 205.881C440.76 205.551 440.855 205.205 440.855 204.841V203.614C440.798 203.682 440.673 203.744 440.48 203.801C440.291 203.854 440.071 203.902 439.821 203.943C439.575 203.981 439.334 204.015 439.099 204.045C438.868 204.072 438.681 204.095 438.537 204.114C438.188 204.159 437.863 204.233 437.559 204.335C437.26 204.434 437.018 204.583 436.832 204.784C436.65 204.981 436.559 205.25 436.559 205.591C436.559 206.057 436.732 206.409 437.077 206.648C437.425 206.883 437.866 207 438.4 207ZM450.484 203.023V204.273H445.666V203.023H450.484ZM445.984 199.273V208H444.643V199.273H445.984ZM451.507 199.273V208H450.166V199.273H451.507ZM452.768 200.523V199.273H459.859V200.523H456.996V208H455.655V200.523H452.768ZM463.156 206.023L467.361 199.273H468.906V208H467.565V201.25L463.383 208H461.815V199.273H463.156V206.023ZM476.612 208V200.5H474.294C473.771 200.5 473.36 200.621 473.061 200.864C472.762 201.106 472.612 201.439 472.612 201.864C472.612 202.28 472.747 202.608 473.015 202.847C473.288 203.085 473.661 203.205 474.135 203.205H476.953V204.455H474.135C473.544 204.455 473.034 204.35 472.606 204.142C472.178 203.934 471.849 203.636 471.618 203.25C471.387 202.86 471.271 202.398 471.271 201.864C471.271 201.326 471.392 200.864 471.635 200.477C471.877 200.091 472.224 199.794 472.675 199.585C473.129 199.377 473.669 199.273 474.294 199.273H477.885V208H476.612ZM470.794 208L473.271 203.659H474.726L472.248 208H470.794ZM490.687 203.023V204.273H485.869V203.023H490.687ZM486.187 199.273V208H484.846V199.273H486.187ZM491.71 199.273V208H490.369V199.273H491.71ZM496.727 208.205C496.174 208.205 495.672 208.1 495.221 207.892C494.771 207.68 494.413 207.375 494.148 206.977C493.882 206.576 493.75 206.091 493.75 205.523C493.75 205.023 493.848 204.617 494.045 204.307C494.242 203.992 494.506 203.746 494.835 203.568C495.165 203.39 495.528 203.258 495.926 203.17C496.327 203.08 496.731 203.008 497.136 202.955C497.666 202.886 498.096 202.835 498.426 202.801C498.759 202.763 499.002 202.701 499.153 202.614C499.309 202.527 499.386 202.375 499.386 202.159V202.114C499.386 201.553 499.233 201.117 498.926 200.807C498.623 200.496 498.163 200.341 497.545 200.341C496.905 200.341 496.403 200.481 496.04 200.761C495.676 201.042 495.42 201.341 495.273 201.659L494 201.205C494.227 200.674 494.53 200.261 494.909 199.966C495.291 199.667 495.708 199.458 496.159 199.341C496.613 199.22 497.06 199.159 497.5 199.159C497.78 199.159 498.102 199.193 498.466 199.261C498.833 199.326 499.187 199.46 499.528 199.665C499.873 199.869 500.159 200.178 500.386 200.591C500.613 201.004 500.727 201.557 500.727 202.25V208H499.386V206.818H499.318C499.227 207.008 499.076 207.21 498.863 207.426C498.651 207.642 498.369 207.826 498.017 207.977C497.665 208.129 497.235 208.205 496.727 208.205ZM496.932 207C497.462 207 497.909 206.896 498.273 206.688C498.64 206.479 498.916 206.21 499.102 205.881C499.291 205.551 499.386 205.205 499.386 204.841V203.614C499.329 203.682 499.204 203.744 499.011 203.801C498.822 203.854 498.602 203.902 498.352 203.943C498.106 203.981 497.865 204.015 497.631 204.045C497.399 204.072 497.212 204.095 497.068 204.114C496.72 204.159 496.394 204.233 496.091 204.335C495.791 204.434 495.549 204.583 495.363 204.784C495.182 204.981 495.091 205.25 495.091 205.591C495.091 206.057 495.263 206.409 495.608 206.648C495.956 206.883 496.398 207 496.932 207ZM512.447 206.182L515.493 199.273H516.765L512.993 208H511.902L508.197 199.273H509.447L512.447 206.182ZM509.015 199.273V208H507.675V199.273H509.015ZM515.879 208V199.273H517.22V208H515.879ZM522.243 208.205C521.69 208.205 521.188 208.1 520.737 207.892C520.286 207.68 519.928 207.375 519.663 206.977C519.398 206.576 519.265 206.091 519.265 205.523C519.265 205.023 519.364 204.617 519.561 204.307C519.758 203.992 520.021 203.746 520.351 203.568C520.68 203.39 521.044 203.258 521.442 203.17C521.843 203.08 522.247 203.008 522.652 202.955C523.182 202.886 523.612 202.835 523.942 202.801C524.275 202.763 524.517 202.701 524.669 202.614C524.824 202.527 524.902 202.375 524.902 202.159V202.114C524.902 201.553 524.748 201.117 524.442 200.807C524.139 200.496 523.678 200.341 523.061 200.341C522.421 200.341 521.919 200.481 521.555 200.761C521.192 201.042 520.936 201.341 520.788 201.659L519.515 201.205C519.743 200.674 520.046 200.261 520.425 199.966C520.807 199.667 521.224 199.458 521.675 199.341C522.129 199.22 522.576 199.159 523.015 199.159C523.296 199.159 523.618 199.193 523.981 199.261C524.349 199.326 524.703 199.46 525.044 199.665C525.389 199.869 525.675 200.178 525.902 200.591C526.129 201.004 526.243 201.557 526.243 202.25V208H524.902V206.818H524.834C524.743 207.008 524.591 207.21 524.379 207.426C524.167 207.642 523.885 207.826 523.532 207.977C523.18 208.129 522.75 208.205 522.243 208.205ZM522.447 207C522.978 207 523.425 206.896 523.788 206.688C524.156 206.479 524.432 206.21 524.618 205.881C524.807 205.551 524.902 205.205 524.902 204.841V203.614C524.845 203.682 524.72 203.744 524.527 203.801C524.337 203.854 524.118 203.902 523.868 203.943C523.622 203.981 523.381 204.015 523.146 204.045C522.915 204.072 522.728 204.095 522.584 204.114C522.235 204.159 521.909 204.233 521.606 204.335C521.307 204.434 521.065 204.583 520.879 204.784C520.697 204.981 520.606 205.25 520.606 205.591C520.606 206.057 520.779 206.409 521.123 206.648C521.472 206.883 521.913 207 522.447 207ZM527.503 200.523V199.273H534.594V200.523H531.73V208H530.389V200.523H527.503ZM539.756 208.182C538.915 208.182 538.189 207.996 537.579 207.625C536.973 207.25 536.506 206.727 536.176 206.057C535.85 205.383 535.687 204.598 535.687 203.705C535.687 202.811 535.85 202.023 536.176 201.341C536.506 200.655 536.964 200.121 537.551 199.739C538.142 199.352 538.831 199.159 539.619 199.159C540.074 199.159 540.523 199.235 540.966 199.386C541.409 199.538 541.812 199.784 542.176 200.125C542.54 200.462 542.829 200.909 543.045 201.466C543.261 202.023 543.369 202.708 543.369 203.523V204.091H536.642V202.932H542.006C542.006 202.439 541.907 202 541.71 201.614C541.517 201.227 541.24 200.922 540.881 200.699C540.524 200.475 540.104 200.364 539.619 200.364C539.085 200.364 538.623 200.496 538.233 200.761C537.846 201.023 537.549 201.364 537.341 201.784C537.132 202.205 537.028 202.655 537.028 203.136V203.909C537.028 204.568 537.142 205.127 537.369 205.585C537.6 206.04 537.92 206.386 538.329 206.625C538.738 206.86 539.214 206.977 539.756 206.977C540.108 206.977 540.426 206.928 540.71 206.83C540.998 206.727 541.246 206.576 541.454 206.375C541.663 206.17 541.824 205.917 541.937 205.614L543.233 205.977C543.096 206.417 542.867 206.803 542.545 207.136C542.223 207.466 541.826 207.723 541.352 207.909C540.879 208.091 540.346 208.182 539.756 208.182ZM545.409 211.273V199.273H546.704V200.659H546.863C546.962 200.508 547.098 200.314 547.273 200.08C547.451 199.841 547.704 199.629 548.034 199.443C548.367 199.254 548.818 199.159 549.386 199.159C550.121 199.159 550.769 199.343 551.329 199.71C551.89 200.078 552.327 200.598 552.642 201.273C552.956 201.947 553.113 202.742 553.113 203.659C553.113 204.583 552.956 205.384 552.642 206.062C552.327 206.737 551.892 207.259 551.335 207.631C550.778 207.998 550.136 208.182 549.409 208.182C548.848 208.182 548.399 208.089 548.062 207.903C547.725 207.714 547.466 207.5 547.284 207.261C547.102 207.019 546.962 206.818 546.863 206.659H546.75V211.273H545.409ZM546.727 203.636C546.727 204.295 546.824 204.877 547.017 205.381C547.21 205.881 547.492 206.273 547.863 206.557C548.235 206.837 548.689 206.977 549.227 206.977C549.788 206.977 550.256 206.83 550.631 206.534C551.009 206.235 551.293 205.833 551.483 205.33C551.676 204.822 551.773 204.258 551.773 203.636C551.773 203.023 551.678 202.47 551.488 201.977C551.303 201.481 551.021 201.089 550.642 200.801C550.267 200.509 549.795 200.364 549.227 200.364C548.682 200.364 548.223 200.502 547.852 200.778C547.481 201.051 547.201 201.434 547.011 201.926C546.822 202.415 546.727 202.985 546.727 203.636ZM556.5 206.023L560.704 199.273H562.25V208H560.909V201.25L556.727 208H555.159V199.273H556.5V206.023ZM567.274 208.205C566.721 208.205 566.219 208.1 565.768 207.892C565.318 207.68 564.96 207.375 564.694 206.977C564.429 206.576 564.297 206.091 564.297 205.523C564.297 205.023 564.395 204.617 564.592 204.307C564.789 203.992 565.052 203.746 565.382 203.568C565.711 203.39 566.075 203.258 566.473 203.17C566.874 203.08 567.278 203.008 567.683 202.955C568.213 202.886 568.643 202.835 568.973 202.801C569.306 202.763 569.549 202.701 569.7 202.614C569.855 202.527 569.933 202.375 569.933 202.159V202.114C569.933 201.553 569.78 201.117 569.473 200.807C569.17 200.496 568.71 200.341 568.092 200.341C567.452 200.341 566.95 200.481 566.586 200.761C566.223 201.042 565.967 201.341 565.819 201.659L564.547 201.205C564.774 200.674 565.077 200.261 565.456 199.966C565.838 199.667 566.255 199.458 566.706 199.341C567.16 199.22 567.607 199.159 568.047 199.159C568.327 199.159 568.649 199.193 569.013 199.261C569.38 199.326 569.734 199.46 570.075 199.665C570.42 199.869 570.706 200.178 570.933 200.591C571.16 201.004 571.274 201.557 571.274 202.25V208H569.933V206.818H569.865C569.774 207.008 569.622 207.21 569.41 207.426C569.198 207.642 568.916 207.826 568.564 207.977C568.211 208.129 567.782 208.205 567.274 208.205ZM567.479 207C568.009 207 568.456 206.896 568.819 206.688C569.187 206.479 569.463 206.21 569.649 205.881C569.838 205.551 569.933 205.205 569.933 204.841V203.614C569.876 203.682 569.751 203.744 569.558 203.801C569.369 203.854 569.149 203.902 568.899 203.943C568.653 203.981 568.412 204.015 568.177 204.045C567.946 204.072 567.759 204.095 567.615 204.114C567.266 204.159 566.941 204.233 566.638 204.335C566.338 204.434 566.096 204.583 565.91 204.784C565.729 204.981 565.638 205.25 565.638 205.591C565.638 206.057 565.81 206.409 566.155 206.648C566.503 206.883 566.944 207 567.479 207ZM572.949 208V206.75H573.267C573.528 206.75 573.746 206.699 573.92 206.597C574.095 206.491 574.235 206.307 574.341 206.045C574.451 205.78 574.534 205.413 574.591 204.943C574.651 204.47 574.695 203.867 574.721 203.136L574.881 199.273H580.699V208H579.358V200.523H576.153L576.017 203.636C575.987 204.352 575.922 204.983 575.824 205.528C575.729 206.07 575.583 206.525 575.386 206.892C575.193 207.259 574.935 207.536 574.613 207.722C574.291 207.907 573.888 208 573.403 208H572.949Z" fill="#3C3C3C"/>
<line x1="345.051" y1="4" x2="345.051" y2="212" stroke="#E5E5E5"/>
<line x1="4.37114e-08" y1="107.5" x2="690" y2="107.5" stroke="#E5E5E5"/>
</svg>
